<svg xmlns="http://www.w3.org/2000/svg" xmlns:xlink="http://www.w3.org/1999/xlink" width="500" zoomAndPan="magnify" viewBox="0 0 375 374.999991" height="500" preserveAspectRatio="xMidYMid meet" version="1.0"><defs><g/><clipPath id="0fa4b958d2"><path d="M 76.554688 71.039062 L 298.441406 71.039062 L 298.441406 214.773438 L 76.554688 214.773438 Z M 76.554688 71.039062 " clip-rule="nonzero"/></clipPath><clipPath id="d2f9683ad5"><path d="M 298.441406 153.5625 L 298.441406 153.035156 C 298.441406 152.328125 298.4375 151.621094 298.402344 150.914062 C 298.382812 150.207031 298.335938 149.5 298.277344 148.789062 C 298.050781 145.953125 297.585938 143.109375 296.847656 140.3125 C 295.367188 134.722656 292.816406 129.328125 289.292969 124.589844 C 285.789062 119.84375 281.320312 115.75 276.195312 112.679688 C 271.070312 109.617188 265.320312 107.519531 259.34375 106.632812 C 256.359375 106.171875 253.324219 106.039062 250.296875 106.164062 C 247.277344 106.324219 244.265625 106.78125 241.332031 107.5 C 235.46875 108.964844 229.925781 111.523438 225.042969 114.855469 C 224.425781 115.265625 223.824219 115.691406 223.234375 116.132812 C 222.632812 116.5625 222.0625 117.019531 221.484375 117.476562 C 220.898438 117.921875 220.351562 118.40625 219.792969 118.875 L 219.375 119.230469 L 218.941406 119.625 L 218.078125 120.417969 L 217.660156 120.804688 L 217.328125 121.132812 L 216.664062 121.78125 L 216.496094 121.941406 L 216.214844 122.230469 L 215.851562 122.609375 L 215.121094 123.367188 C 214.171875 124.378906 213.25 125.394531 212.375 126.410156 C 208.859375 130.472656 205.761719 134.535156 202.71875 138.558594 C 199.691406 142.582031 196.753906 146.5625 193.847656 150.496094 C 188.023438 158.34375 182.140625 165.917969 175.8125 172.710938 C 172.667969 176.121094 169.40625 179.320312 166.011719 182.1875 C 162.625 185.050781 159.113281 187.597656 155.492188 189.621094 C 151.867188 191.640625 148.160156 193.152344 144.410156 194.007812 C 143.472656 194.222656 142.53125 194.394531 141.589844 194.53125 C 141.121094 194.609375 140.644531 194.636719 140.175781 194.699219 C 139.925781 194.730469 139.730469 194.742188 139.53125 194.753906 L 138.929688 194.800781 L 138.78125 194.8125 L 138.707031 194.820312 L 138.589844 194.820312 L 138.128906 194.832031 L 137.199219 194.851562 L 136.488281 194.871094 L 135.589844 194.882812 C 134.617188 194.886719 133.640625 194.84375 132.667969 194.777344 C 124.890625 194.175781 117.1875 191.097656 110.851562 186.097656 C 107.683594 183.605469 104.859375 180.648438 102.515625 177.367188 C 100.160156 174.101562 98.261719 170.507812 96.96875 166.726562 C 96.316406 164.839844 95.808594 162.90625 95.464844 160.945312 C 95.371094 160.453125 95.304688 159.960938 95.230469 159.472656 C 95.171875 158.984375 95.097656 158.453125 95.0625 158.046875 C 95.039062 157.820312 95.015625 157.652344 94.996094 157.304688 L 94.9375 156.5 L 94.890625 154.976562 C 94.800781 150.910156 95.265625 146.84375 96.34375 142.914062 C 96.898438 140.957031 97.574219 139.027344 98.394531 137.15625 C 99.238281 135.289062 100.210938 133.480469 101.304688 131.738281 C 103.523438 128.28125 106.203125 125.066406 109.359375 122.363281 C 112.484375 119.617188 116.0625 117.382812 119.878906 115.660156 C 121.792969 114.8125 123.765625 114.078125 125.792969 113.5 C 127.824219 112.945312 129.902344 112.523438 132.011719 112.238281 L 135.800781 111.726562 L 137.425781 108.988281 C 138.648438 106.933594 140 104.953125 141.472656 103.058594 C 142.941406 101.164062 144.519531 99.335938 146.214844 97.617188 C 149.601562 94.179688 153.4375 91.144531 157.605469 88.613281 C 161.761719 86.058594 166.265625 84.011719 170.984375 82.554688 C 173.34375 81.828125 175.753906 81.230469 178.203125 80.777344 C 178.816406 80.675781 179.429688 80.5625 180.042969 80.46875 L 181.894531 80.21875 L 183.695312 80.023438 L 185.707031 79.886719 L 187.523438 79.808594 L 189.410156 79.789062 C 190.667969 79.804688 191.925781 79.828125 193.1875 79.90625 C 195.710938 80.058594 198.230469 80.367188 200.730469 80.835938 C 205.722656 81.789062 210.660156 83.308594 215.363281 85.480469 C 217.710938 86.5625 220.019531 87.769531 222.242188 89.136719 C 224.46875 90.503906 226.621094 92.011719 228.691406 93.640625 C 230.765625 95.277344 232.738281 97.050781 234.621094 98.929688 C 236.5 100.824219 238.28125 102.816406 239.949219 104.941406 C 238.6875 102.566406 237.261719 100.246094 235.671875 98.042969 C 234.09375 95.828125 232.347656 93.71875 230.476562 91.710938 C 228.605469 89.703125 226.585938 87.8125 224.449219 86.054688 C 222.3125 84.300781 220.066406 82.652344 217.699219 81.175781 C 212.964844 78.222656 207.832031 75.808594 202.417969 74.140625 C 199.714844 73.296875 196.949219 72.621094 194.144531 72.117188 C 192.742188 71.871094 191.328125 71.660156 189.90625 71.503906 C 189.195312 71.4375 188.484375 71.355469 187.773438 71.300781 L 186.167969 71.195312 L 185.765625 71.171875 L 185.730469 71.167969 L 185.628906 71.167969 L 185.566406 71.164062 L 183.550781 71.089844 L 181.332031 71.089844 L 179.171875 71.152344 C 178.453125 71.183594 177.734375 71.242188 177.011719 71.285156 C 174.136719 71.5 171.265625 71.902344 168.425781 72.503906 C 162.742188 73.695312 157.179688 75.609375 151.917969 78.199219 C 146.667969 80.808594 141.730469 84.101562 137.25 87.960938 C 135.011719 89.890625 132.878906 91.960938 130.894531 94.167969 C 129.726562 95.472656 128.613281 96.828125 127.542969 98.214844 C 125.800781 98.414062 124.0625 98.675781 122.339844 99.027344 C 119.550781 99.609375 116.800781 100.410156 114.113281 101.390625 C 111.421875 102.375 108.832031 103.621094 106.320312 105.003906 C 103.800781 106.386719 101.40625 107.988281 99.128906 109.746094 C 96.851562 111.503906 94.683594 113.421875 92.695312 115.515625 C 90.707031 117.605469 88.820312 119.816406 87.167969 122.199219 C 85.507812 124.578125 84.015625 127.078125 82.703125 129.675781 C 81.40625 132.28125 80.308594 134.992188 79.394531 137.765625 C 77.605469 143.320312 76.613281 149.160156 76.554688 155.007812 L 76.554688 157.199219 L 76.59375 158.25 C 76.597656 158.519531 76.628906 158.96875 76.652344 159.359375 C 76.703125 160.1875 76.773438 160.886719 76.84375 161.632812 C 76.925781 162.371094 77.007812 163.109375 77.117188 163.839844 C 77.539062 166.773438 78.199219 169.671875 79.066406 172.5 C 80.804688 178.15625 83.398438 183.519531 86.707031 188.375 C 90.03125 193.226562 94.035156 197.589844 98.582031 201.316406 C 103.125 205.046875 108.21875 208.136719 113.691406 210.433594 C 119.167969 212.734375 125.042969 214.1875 131.023438 214.707031 C 132.519531 214.832031 134.023438 214.910156 135.527344 214.917969 L 137.632812 214.898438 L 139.027344 214.875 L 139.144531 214.871094 L 139.304688 214.863281 L 139.617188 214.84375 L 140.871094 214.769531 C 141.289062 214.742188 141.714844 214.714844 142.078125 214.671875 C 142.835938 214.585938 143.601562 214.527344 144.351562 214.40625 C 145.863281 214.195312 147.363281 213.929688 148.839844 213.59375 C 154.765625 212.265625 160.316406 209.972656 165.324219 207.140625 C 170.34375 204.304688 174.875 200.980469 179.023438 197.417969 C 183.167969 193.847656 186.949219 190.046875 190.488281 186.140625 C 197.535156 178.300781 203.648438 170.050781 209.488281 161.882812 C 212.414062 157.808594 215.222656 153.714844 218.03125 149.730469 C 220.839844 145.757812 223.648438 141.855469 226.515625 138.335938 C 227.230469 137.449219 227.949219 136.609375 228.667969 135.789062 L 229.207031 135.191406 L 229.476562 134.894531 C 229.453125 134.917969 229.628906 134.734375 229.4375 134.929688 L 229.519531 134.84375 L 229.679688 134.679688 L 230.324219 134.007812 L 230.644531 133.671875 L 230.902344 133.421875 L 231.390625 132.9375 L 231.632812 132.695312 L 231.910156 132.4375 C 232.285156 132.097656 232.648438 131.734375 233.035156 131.414062 C 233.417969 131.085938 233.796875 130.75 234.191406 130.441406 C 234.582031 130.125 234.972656 129.8125 235.378906 129.519531 C 238.574219 127.117188 242.097656 125.3125 245.804688 124.195312 C 249.511719 123.105469 253.402344 122.6875 257.265625 123.035156 C 261.125 123.375 264.941406 124.511719 268.441406 126.324219 C 271.914062 128.171875 275.121094 130.636719 277.71875 133.699219 C 280.339844 136.738281 282.375 140.328125 283.722656 144.230469 C 284.417969 146.179688 284.925781 148.214844 285.265625 150.296875 C 285.355469 150.820312 285.433594 151.34375 285.492188 151.871094 C 285.5625 152.398438 285.609375 152.929688 285.652344 153.460938 L 285.6875 153.863281 C 285.6875 153.863281 285.695312 154 285.695312 153.890625 L 285.699219 154.003906 L 285.734375 154.703125 L 285.746094 154.933594 L 285.75 155.050781 C 285.757812 154.777344 285.753906 155.039062 285.757812 155.011719 C 285.773438 155.621094 285.792969 156.292969 285.789062 156.746094 C 285.800781 157.234375 285.78125 157.792969 285.773438 158.335938 C 285.746094 158.875 285.734375 159.421875 285.6875 159.960938 C 285.617188 161.046875 285.492188 162.128906 285.339844 163.210938 C 285.042969 165.371094 284.574219 167.519531 283.949219 169.625 C 281.433594 178.054688 276.332031 185.890625 269.324219 191.738281 C 265.84375 194.683594 261.894531 197.144531 257.628906 198.972656 C 253.371094 200.820312 248.796875 202.046875 244.085938 202.566406 C 239.378906 203.109375 234.535156 202.949219 229.761719 202.113281 C 224.996094 201.242188 220.292969 199.691406 215.839844 197.472656 C 219.824219 200.445312 224.328125 202.839844 229.148438 204.480469 C 233.96875 206.128906 239.085938 207 244.28125 207.144531 C 249.472656 207.25 254.730469 206.566406 259.808594 205.082031 C 264.878906 203.582031 269.757812 201.304688 274.226562 198.335938 C 278.683594 195.351562 282.722656 191.6875 286.171875 187.476562 C 289.625 183.273438 292.429688 178.492188 294.496094 173.375 C 295.53125 170.816406 296.375 168.167969 297.011719 165.464844 C 297.328125 164.113281 297.59375 162.746094 297.800781 161.371094 C 297.914062 160.683594 297.988281 159.992188 298.082031 159.300781 C 298.152344 158.605469 298.230469 157.929688 298.277344 157.179688 C 298.339844 156.394531 298.363281 155.828125 298.402344 155.203125 L 298.433594 154.117188 L 298.441406 153.882812 Z M 298.441406 153.5625 " clip-rule="nonzero"/></clipPath><clipPath id="7d5d196be6"><path d="M 298.441406 153.5625 L 298.441406 153.035156 C 298.441406 152.328125 298.4375 151.621094 298.402344 150.914062 C 298.382812 150.207031 298.335938 149.5 298.277344 148.789062 C 298.050781 145.953125 297.585938 143.109375 296.847656 140.3125 C 295.367188 134.722656 292.816406 129.328125 289.292969 124.589844 C 285.789062 119.84375 281.320312 115.75 276.195312 112.679688 C 271.070312 109.617188 265.320312 107.519531 259.34375 106.632812 C 256.359375 106.171875 253.324219 106.039062 250.296875 106.164062 C 247.277344 106.324219 244.265625 106.78125 241.332031 107.5 C 235.46875 108.964844 229.925781 111.523438 225.042969 114.855469 C 224.425781 115.265625 223.824219 115.691406 223.234375 116.132812 C 222.632812 116.5625 222.0625 117.019531 221.484375 117.476562 C 220.898438 117.921875 220.351562 118.40625 219.792969 118.875 L 219.375 119.230469 L 218.941406 119.625 L 218.078125 120.417969 L 217.660156 120.804688 L 217.328125 121.132812 L 216.664062 121.78125 L 216.496094 121.941406 L 216.214844 122.230469 L 215.851562 122.609375 L 215.121094 123.367188 C 214.171875 124.378906 213.25 125.394531 212.375 126.410156 C 208.859375 130.472656 205.761719 134.535156 202.71875 138.558594 C 199.691406 142.582031 196.753906 146.5625 193.847656 150.496094 C 188.023438 158.34375 182.140625 165.917969 175.8125 172.710938 C 172.667969 176.121094 169.40625 179.320312 166.011719 182.1875 C 162.625 185.050781 159.113281 187.597656 155.492188 189.621094 C 151.867188 191.640625 148.160156 193.152344 144.410156 194.007812 C 143.472656 194.222656 142.53125 194.394531 141.589844 194.53125 C 141.121094 194.609375 140.644531 194.636719 140.175781 194.699219 C 139.925781 194.730469 139.730469 194.742188 139.53125 194.753906 L 138.929688 194.800781 L 138.78125 194.8125 L 138.707031 194.820312 L 138.589844 194.820312 L 138.128906 194.832031 L 137.199219 194.851562 L 136.488281 194.871094 L 135.589844 194.882812 C 134.617188 194.886719 133.640625 194.84375 132.667969 194.777344 C 124.890625 194.175781 117.1875 191.097656 110.851562 186.097656 C 107.683594 183.605469 104.859375 180.648438 102.515625 177.367188 C 100.160156 174.101562 98.261719 170.507812 96.96875 166.726562 C 96.316406 164.839844 95.808594 162.90625 95.464844 160.945312 C 95.371094 160.453125 95.304688 159.960938 95.230469 159.472656 C 95.171875 158.984375 95.097656 158.453125 95.0625 158.046875 C 95.039062 157.820312 95.015625 157.652344 94.996094 157.304688 L 94.9375 156.5 L 94.890625 154.976562 C 94.800781 150.910156 95.265625 146.84375 96.34375 142.914062 C 96.898438 140.957031 97.574219 139.027344 98.394531 137.15625 C 99.238281 135.289062 100.210938 133.480469 101.304688 131.738281 C 103.523438 128.28125 106.203125 125.066406 109.359375 122.363281 C 112.484375 119.617188 116.0625 117.382812 119.878906 115.660156 C 121.792969 114.8125 123.765625 114.078125 125.792969 113.5 C 127.824219 112.945312 129.902344 112.523438 132.011719 112.238281 L 135.800781 111.726562 L 137.425781 108.988281 C 138.648438 106.933594 140 104.953125 141.472656 103.058594 C 142.941406 101.164062 144.519531 99.335938 146.214844 97.617188 C 149.601562 94.179688 153.4375 91.144531 157.605469 88.613281 C 161.761719 86.058594 166.265625 84.011719 170.984375 82.554688 C 173.34375 81.828125 175.753906 81.230469 178.203125 80.777344 C 178.816406 80.675781 179.429688 80.5625 180.042969 80.46875 L 181.894531 80.21875 L 183.695312 80.023438 L 185.707031 79.886719 L 187.523438 79.808594 L 189.410156 79.789062 C 190.667969 79.804688 191.925781 79.828125 193.1875 79.90625 C 195.710938 80.058594 198.230469 80.367188 200.730469 80.835938 C 205.722656 81.789062 210.660156 83.308594 215.363281 85.480469 C 217.710938 86.5625 220.019531 87.769531 222.242188 89.136719 C 224.46875 90.503906 226.621094 92.011719 228.691406 93.640625 C 230.765625 95.277344 232.738281 97.050781 234.621094 98.929688 C 236.5 100.824219 238.28125 102.816406 239.949219 104.941406 C 238.6875 102.566406 237.261719 100.246094 235.671875 98.042969 C 234.09375 95.828125 232.347656 93.71875 230.476562 91.710938 C 228.605469 89.703125 226.585938 87.8125 224.449219 86.054688 C 222.3125 84.300781 220.066406 82.652344 217.699219 81.175781 C 212.964844 78.222656 207.832031 75.808594 202.417969 74.140625 C 199.714844 73.296875 196.949219 72.621094 194.144531 72.117188 C 192.742188 71.871094 191.328125 71.660156 189.90625 71.503906 C 189.195312 71.4375 188.484375 71.355469 187.773438 71.300781 L 186.167969 71.195312 L 185.765625 71.171875 L 185.730469 71.167969 L 185.628906 71.167969 L 185.566406 71.164062 L 183.550781 71.089844 L 181.332031 71.089844 L 179.171875 71.152344 C 178.453125 71.183594 177.734375 71.242188 177.011719 71.285156 C 174.136719 71.5 171.265625 71.902344 168.425781 72.503906 C 162.742188 73.695312 157.179688 75.609375 151.917969 78.199219 C 146.667969 80.808594 141.730469 84.101562 137.25 87.960938 C 135.011719 89.890625 132.878906 91.960938 130.894531 94.167969 C 129.726562 95.472656 128.613281 96.828125 127.542969 98.214844 C 125.800781 98.414062 124.0625 98.675781 122.339844 99.027344 C 119.550781 99.609375 116.800781 100.410156 114.113281 101.390625 C 111.421875 102.375 108.832031 103.621094 106.320312 105.003906 C 103.800781 106.386719 101.40625 107.988281 99.128906 109.746094 C 96.851562 111.503906 94.683594 113.421875 92.695312 115.515625 C 90.707031 117.605469 88.820312 119.816406 87.167969 122.199219 C 85.507812 124.578125 84.015625 127.078125 82.703125 129.675781 C 81.40625 132.28125 80.308594 134.992188 79.394531 137.765625 C 77.605469 143.320312 76.613281 149.160156 76.554688 155.007812 L 76.554688 157.199219 L 76.59375 158.25 C 76.597656 158.519531 76.628906 158.96875 76.652344 159.359375 C 76.703125 160.1875 76.773438 160.886719 76.84375 161.632812 C 76.925781 162.371094 77.007812 163.109375 77.117188 163.839844 C 77.539062 166.773438 78.199219 169.671875 79.066406 172.5 C 80.804688 178.15625 83.398438 183.519531 86.707031 188.375 C 90.03125 193.226562 94.035156 197.589844 98.582031 201.316406 C 103.125 205.046875 108.21875 208.136719 113.691406 210.433594 C 119.167969 212.734375 125.042969 214.1875 131.023438 214.707031 C 132.519531 214.832031 134.023438 214.910156 135.527344 214.917969 L 137.632812 214.898438 L 139.027344 214.875 L 139.144531 214.871094 L 139.304688 214.863281 L 139.617188 214.84375 L 140.871094 214.769531 C 141.289062 214.742188 141.714844 214.714844 142.078125 214.671875 C 142.835938 214.585938 143.601562 214.527344 144.351562 214.40625 C 145.863281 214.195312 147.363281 213.929688 148.839844 213.59375 C 154.765625 212.265625 160.316406 209.972656 165.324219 207.140625 C 170.34375 204.304688 174.875 200.980469 179.023438 197.417969 C 183.167969 193.847656 186.949219 190.046875 190.488281 186.140625 C 197.535156 178.300781 203.648438 170.050781 209.488281 161.882812 C 212.414062 157.808594 215.222656 153.714844 218.03125 149.730469 C 220.839844 145.757812 223.648438 141.855469 226.515625 138.335938 C 227.230469 137.449219 227.949219 136.609375 228.667969 135.789062 L 229.207031 135.191406 L 229.476562 134.894531 C 229.453125 134.917969 229.628906 134.734375 229.4375 134.929688 L 229.519531 134.84375 L 229.679688 134.679688 L 230.324219 134.007812 L 230.644531 133.671875 L 230.902344 133.421875 L 231.390625 132.9375 L 231.632812 132.695312 L 231.910156 132.4375 C 232.285156 132.097656 232.648438 131.734375 233.035156 131.414062 C 233.417969 131.085938 233.796875 130.75 234.191406 130.441406 C 234.582031 130.125 234.972656 129.8125 235.378906 129.519531 C 238.574219 127.117188 242.097656 125.3125 245.804688 124.195312 C 249.511719 123.105469 253.402344 122.6875 257.265625 123.035156 C 261.125 123.375 264.941406 124.511719 268.441406 126.324219 C 271.914062 128.171875 275.121094 130.636719 277.71875 133.699219 C 280.339844 136.738281 282.375 140.328125 283.722656 144.230469 C 284.417969 146.179688 284.925781 148.214844 285.265625 150.296875 C 285.355469 150.820312 285.433594 151.34375 285.492188 151.871094 C 285.5625 152.398438 285.609375 152.929688 285.652344 153.460938 L 285.6875 153.863281 C 285.6875 153.863281 285.695312 154 285.695312 153.890625 L 285.699219 154.003906 L 285.734375 154.703125 L 285.746094 154.933594 L 285.75 155.050781 C 285.757812 154.777344 285.753906 155.039062 285.757812 155.011719 C 285.773438 155.621094 285.792969 156.292969 285.789062 156.746094 C 285.800781 157.234375 285.78125 157.792969 285.773438 158.335938 C 285.746094 158.875 285.734375 159.421875 285.6875 159.960938 C 285.617188 161.046875 285.492188 162.128906 285.339844 163.210938 C 285.042969 165.371094 284.574219 167.519531 283.949219 169.625 C 281.433594 178.054688 276.332031 185.890625 269.324219 191.738281 C 265.84375 194.683594 261.894531 197.144531 257.628906 198.972656 C 253.371094 200.820312 248.796875 202.046875 244.085938 202.566406 C 239.378906 203.109375 234.535156 202.949219 229.761719 202.113281 C 224.996094 201.242188 220.292969 199.691406 215.839844 197.472656 C 219.824219 200.445312 224.328125 202.839844 229.148438 204.480469 C 233.96875 206.128906 239.085938 207 244.28125 207.144531 C 249.472656 207.25 254.730469 206.566406 259.808594 205.082031 C 264.878906 203.582031 269.757812 201.304688 274.226562 198.335938 C 278.683594 195.351562 282.722656 191.6875 286.171875 187.476562 C 289.625 183.273438 292.429688 178.492188 294.496094 173.375 C 295.53125 170.816406 296.375 168.167969 297.011719 165.464844 C 297.328125 164.113281 297.59375 162.746094 297.800781 161.371094 C 297.914062 160.683594 297.988281 159.992188 298.082031 159.300781 C 298.152344 158.605469 298.230469 157.929688 298.277344 157.179688 C 298.339844 156.394531 298.363281 155.828125 298.402344 155.203125 L 298.433594 154.117188 L 298.441406 153.882812 L 298.441406 153.5625 " clip-rule="nonzero"/></clipPath><clipPath id="d989c1fe35"><path d="M 368.664062 127.492188 L 163.566406 -37.242188 L 6.332031 158.515625 L 211.429688 323.25 Z M 368.664062 127.492188 " clip-rule="nonzero"/></clipPath><radialGradient gradientTransform="matrix(-0.626209, 0.779655, -0.779655, -0.626209, 242.677889, 56.079769)" gradientUnits="userSpaceOnUse" r="158.446268" cx="0" id="584badcd0c" cy="0" fx="0" fy="0"><stop stop-opacity="1" stop-color="rgb(0.193787%, 67.799377%, 93.699646%)" offset="0"/><stop stop-opacity="1" stop-color="rgb(0.393677%, 67.658997%, 93.513489%)" offset="0.0078125"/><stop stop-opacity="1" stop-color="rgb(0.39978%, 67.50946%, 93.313599%)" offset="0.0117188"/><stop stop-opacity="1" stop-color="rgb(0.39978%, 67.498779%, 93.299866%)" offset="0.015625"/><stop stop-opacity="1" stop-color="rgb(0.59967%, 67.498779%, 93.299866%)" offset="0.0195312"/><stop stop-opacity="1" stop-color="rgb(0.799561%, 67.481995%, 93.299866%)" offset="0.0234375"/><stop stop-opacity="1" stop-color="rgb(0.799561%, 67.282104%, 93.286133%)" offset="0.0273438"/><stop stop-opacity="1" stop-color="rgb(0.80719%, 67.098999%, 93.086243%)" offset="0.03125"/><stop stop-opacity="1" stop-color="rgb(1.00708%, 67.098999%, 92.89856%)" offset="0.0351562"/><stop stop-opacity="1" stop-color="rgb(1.199341%, 66.90979%, 92.89856%)" offset="0.046875"/><stop stop-opacity="1" stop-color="rgb(1.199341%, 66.7099%, 92.89856%)" offset="0.0507812"/><stop stop-opacity="1" stop-color="rgb(1.199341%, 66.699219%, 92.718506%)" offset="0.0546875"/><stop stop-opacity="1" stop-color="rgb(1.373291%, 66.699219%, 92.518616%)" offset="0.0585938"/><stop stop-opacity="1" stop-color="rgb(1.573181%, 66.677856%, 92.498779%)" offset="0.0625"/><stop stop-opacity="1" stop-color="rgb(1.61438%, 66.477966%, 92.498779%)" offset="0.0664062"/><stop stop-opacity="1" stop-color="rgb(1.81427%, 66.299438%, 92.349243%)" offset="0.0703125"/><stop stop-opacity="1" stop-color="rgb(1.998901%, 66.299438%, 92.199707%)" offset="0.0820312"/><stop stop-opacity="1" stop-color="rgb(2.191162%, 66.107178%, 92.199707%)" offset="0.0859375"/><stop stop-opacity="1" stop-color="rgb(2.391052%, 65.907288%, 92.021179%)" offset="0.0898438"/><stop stop-opacity="1" stop-color="rgb(2.415466%, 65.875244%, 91.821289%)" offset="0.101562"/><stop stop-opacity="1" stop-color="rgb(2.566528%, 65.675354%, 91.799927%)" offset="0.105469"/><stop stop-opacity="1" stop-color="rgb(2.703857%, 65.499878%, 91.793823%)" offset="0.117188"/><stop stop-opacity="1" stop-color="rgb(2.903748%, 65.499878%, 91.593933%)" offset="0.121094"/><stop stop-opacity="1" stop-color="rgb(3.09906%, 65.304565%, 91.398621%)" offset="0.125"/><stop stop-opacity="1" stop-color="rgb(3.09906%, 65.103149%, 91.398621%)" offset="0.128906"/><stop stop-opacity="1" stop-color="rgb(3.09906%, 65.098572%, 91.398621%)" offset="0.140625"/><stop stop-opacity="1" stop-color="rgb(3.29895%, 64.898682%, 91.19873%)" offset="0.144531"/><stop stop-opacity="1" stop-color="rgb(3.49884%, 64.698792%, 90.99884%)" offset="0.148438"/><stop stop-opacity="1" stop-color="rgb(3.511047%, 64.698792%, 90.99884%)" offset="0.152344"/><stop stop-opacity="1" stop-color="rgb(3.710938%, 64.698792%, 90.99884%)" offset="0.15625"/><stop stop-opacity="1" stop-color="rgb(3.898621%, 64.69574%, 90.99884%)" offset="0.160156"/><stop stop-opacity="1" stop-color="rgb(3.898621%, 64.497375%, 90.99884%)" offset="0.164062"/><stop stop-opacity="1" stop-color="rgb(4.092407%, 64.300537%, 90.805054%)" offset="0.167969"/><stop stop-opacity="1" stop-color="rgb(4.292297%, 64.299011%, 90.605164%)" offset="0.171875"/><stop stop-opacity="1" stop-color="rgb(4.299927%, 64.123535%, 90.59906%)" offset="0.183594"/><stop stop-opacity="1" stop-color="rgb(4.319763%, 63.923645%, 90.577698%)" offset="0.1875"/><stop stop-opacity="1" stop-color="rgb(4.525757%, 63.893127%, 90.377808%)" offset="0.191406"/><stop stop-opacity="1" stop-color="rgb(4.905701%, 63.693237%, 90.19928%)" offset="0.203125"/><stop stop-opacity="1" stop-color="rgb(5.28717%, 63.499451%, 90.011597%)" offset="0.214844"/><stop stop-opacity="1" stop-color="rgb(5.487061%, 63.499451%, 89.811707%)" offset="0.21875"/><stop stop-opacity="1" stop-color="rgb(5.499268%, 63.320923%, 89.7995%)" offset="0.222656"/><stop stop-opacity="1" stop-color="rgb(5.499268%, 63.121033%, 89.7995%)" offset="0.226562"/><stop stop-opacity="1" stop-color="rgb(5.499268%, 63.09967%, 89.779663%)" offset="0.230469"/><stop stop-opacity="1" stop-color="rgb(5.513%, 63.084412%, 89.579773%)" offset="0.234375"/><stop stop-opacity="1" stop-color="rgb(5.712891%, 62.884521%, 89.399719%)" offset="0.238281"/><stop stop-opacity="1" stop-color="rgb(6.09436%, 62.69989%, 89.399719%)" offset="0.25"/><stop stop-opacity="1" stop-color="rgb(6.29425%, 62.554932%, 89.205933%)" offset="0.253906"/><stop stop-opacity="1" stop-color="rgb(6.298828%, 62.40387%, 89.006042%)" offset="0.261719"/><stop stop-opacity="1" stop-color="rgb(6.396484%, 62.30011%, 88.999939%)" offset="0.269531"/><stop stop-opacity="1" stop-color="rgb(6.596375%, 62.10022%, 88.893127%)" offset="0.273438"/><stop stop-opacity="1" stop-color="rgb(6.800842%, 61.999512%, 88.691711%)" offset="0.28125"/><stop stop-opacity="1" stop-color="rgb(7.000732%, 61.901855%, 88.598633%)" offset="0.289062"/><stop stop-opacity="1" stop-color="rgb(7.191467%, 61.701965%, 88.50708%)" offset="0.296875"/><stop stop-opacity="1" stop-color="rgb(7.391357%, 61.499023%, 88.30719%)" offset="0.304688"/><stop stop-opacity="1" stop-color="rgb(7.580566%, 61.299133%, 88.198853%)" offset="0.3125"/><stop stop-opacity="1" stop-color="rgb(7.730103%, 61.199951%, 88.095093%)" offset="0.320312"/><stop stop-opacity="1" stop-color="rgb(7.798767%, 61.196899%, 87.895203%)" offset="0.328125"/><stop stop-opacity="1" stop-color="rgb(7.798767%, 61.000061%, 87.799072%)" offset="0.332031"/><stop stop-opacity="1" stop-color="rgb(7.798767%, 60.614014%, 87.658691%)" offset="0.335938"/><stop stop-opacity="1" stop-color="rgb(7.981873%, 60.411072%, 87.509155%)" offset="0.34375"/><stop stop-opacity="1" stop-color="rgb(8.280945%, 60.299683%, 87.5%)" offset="0.347656"/><stop stop-opacity="1" stop-color="rgb(8.49762%, 60.099792%, 87.391663%)" offset="0.355469"/><stop stop-opacity="1" stop-color="rgb(8.702087%, 59.999084%, 87.191772%)" offset="0.363281"/><stop stop-opacity="1" stop-color="rgb(8.901978%, 59.901428%, 87.098694%)" offset="0.371094"/><stop stop-opacity="1" stop-color="rgb(8.999634%, 59.701538%, 87.005615%)" offset="0.378906"/><stop stop-opacity="1" stop-color="rgb(9.100342%, 59.498596%, 86.805725%)" offset="0.386719"/><stop stop-opacity="1" stop-color="rgb(9.300232%, 59.298706%, 86.698914%)" offset="0.394531"/><stop stop-opacity="1" stop-color="rgb(9.503174%, 59.095764%, 86.595154%)" offset="0.402344"/><stop stop-opacity="1" stop-color="rgb(9.703064%, 58.80127%, 86.300659%)" offset="0.410156"/><stop stop-opacity="1" stop-color="rgb(9.889221%, 58.505249%, 86.004639%)" offset="0.425781"/><stop stop-opacity="1" stop-color="rgb(10.076904%, 58.399963%, 85.899353%)" offset="0.433594"/><stop stop-opacity="1" stop-color="rgb(10.284424%, 58.399963%, 85.899353%)" offset="0.4375"/><stop stop-opacity="1" stop-color="rgb(10.496521%, 58.293152%, 85.794067%)" offset="0.441406"/><stop stop-opacity="1" stop-color="rgb(10.699463%, 58.093262%, 85.594177%)" offset="0.449219"/><stop stop-opacity="1" stop-color="rgb(10.899353%, 57.902527%, 85.499573%)" offset="0.457031"/><stop stop-opacity="1" stop-color="rgb(10.998535%, 57.702637%, 85.40802%)" offset="0.464844"/><stop stop-opacity="1" stop-color="rgb(11.097717%, 57.524109%, 85.20813%)" offset="0.472656"/><stop stop-opacity="1" stop-color="rgb(11.297607%, 57.272339%, 84.996033%)" offset="0.480469"/><stop stop-opacity="1" stop-color="rgb(11.497498%, 56.996155%, 84.796143%)" offset="0.496094"/><stop stop-opacity="1" stop-color="rgb(11.697388%, 56.716919%, 84.698486%)" offset="0.503906"/><stop stop-opacity="1" stop-color="rgb(11.975098%, 56.517029%, 84.521484%)" offset="0.515625"/><stop stop-opacity="1" stop-color="rgb(12.184143%, 56.486511%, 84.321594%)" offset="0.519531"/><stop stop-opacity="1" stop-color="rgb(12.358093%, 56.286621%, 84.298706%)" offset="0.53125"/><stop stop-opacity="1" stop-color="rgb(12.5%, 56.098938%, 84.295654%)" offset="0.535156"/><stop stop-opacity="1" stop-color="rgb(12.5%, 56.098938%, 84.09729%)" offset="0.539062"/><stop stop-opacity="1" stop-color="rgb(12.5%, 56.098938%, 83.900452%)" offset="0.542969"/><stop stop-opacity="1" stop-color="rgb(12.5%, 55.909729%, 83.898926%)" offset="0.546875"/><stop stop-opacity="1" stop-color="rgb(12.5%, 55.709839%, 83.898926%)" offset="0.550781"/><stop stop-opacity="1" stop-color="rgb(12.678528%, 55.699158%, 83.898926%)" offset="0.554688"/><stop stop-opacity="1" stop-color="rgb(12.878418%, 55.699158%, 83.898926%)" offset="0.558594"/><stop stop-opacity="1" stop-color="rgb(12.919617%, 55.677795%, 83.699036%)" offset="0.5625"/><stop stop-opacity="1" stop-color="rgb(13.119507%, 55.471802%, 83.499146%)" offset="0.566406"/><stop stop-opacity="1" stop-color="rgb(13.299561%, 55.093384%, 83.49762%)" offset="0.578125"/><stop stop-opacity="1" stop-color="rgb(13.299561%, 54.899597%, 83.300781%)" offset="0.582031"/><stop stop-opacity="1" stop-color="rgb(13.299561%, 54.899597%, 83.102417%)" offset="0.585938"/><stop stop-opacity="1" stop-color="rgb(13.487244%, 54.899597%, 83.099365%)" offset="0.589844"/><stop stop-opacity="1" stop-color="rgb(13.687134%, 54.899597%, 83.099365%)" offset="0.59375"/><stop stop-opacity="1" stop-color="rgb(13.699341%, 54.721069%, 83.099365%)" offset="0.597656"/><stop stop-opacity="1" stop-color="rgb(13.722229%, 54.521179%, 83.074951%)" offset="0.601562"/><stop stop-opacity="1" stop-color="rgb(13.922119%, 54.499817%, 82.875061%)" offset="0.605469"/><stop stop-opacity="1" stop-color="rgb(14.099121%, 54.484558%, 82.699585%)" offset="0.609375"/><stop stop-opacity="1" stop-color="rgb(14.099121%, 54.284668%, 82.699585%)" offset="0.613281"/><stop stop-opacity="1" stop-color="rgb(14.103699%, 54.098511%, 82.699585%)" offset="0.617188"/><stop stop-opacity="1" stop-color="rgb(14.303589%, 54.003906%, 82.548523%)" offset="0.621094"/><stop stop-opacity="1" stop-color="rgb(14.588928%, 53.804016%, 82.398987%)" offset="0.632812"/><stop stop-opacity="1" stop-color="rgb(14.788818%, 53.601074%, 82.299805%)" offset="0.640625"/><stop stop-opacity="1" stop-color="rgb(15.005493%, 53.401184%, 82.099915%)" offset="0.648438"/><stop stop-opacity="1" stop-color="rgb(15.205383%, 53.196716%, 81.999207%)" offset="0.65625"/><stop stop-opacity="1" stop-color="rgb(15.299988%, 52.996826%, 81.90155%)" offset="0.664062"/><stop stop-opacity="1" stop-color="rgb(15.391541%, 52.806091%, 81.70166%)" offset="0.671875"/><stop stop-opacity="1" stop-color="rgb(15.591431%, 52.606201%, 81.599426%)" offset="0.679688"/><stop stop-opacity="1" stop-color="rgb(15.80658%, 52.418518%, 81.491089%)" offset="0.6875"/><stop stop-opacity="1" stop-color="rgb(16.00647%, 52.1698%, 81.193542%)" offset="0.695312"/><stop stop-opacity="1" stop-color="rgb(16.192627%, 51.899719%, 80.900574%)" offset="0.710938"/><stop stop-opacity="1" stop-color="rgb(16.392517%, 51.696777%, 80.799866%)" offset="0.71875"/><stop stop-opacity="1" stop-color="rgb(16.607666%, 51.496887%, 80.690002%)" offset="0.726562"/><stop stop-opacity="1" stop-color="rgb(16.807556%, 51.293945%, 80.488586%)" offset="0.734375"/><stop stop-opacity="1" stop-color="rgb(16.998291%, 51.094055%, 80.39856%)" offset="0.742188"/><stop stop-opacity="1" stop-color="rgb(17.198181%, 50.999451%, 80.39856%)" offset="0.75"/><stop stop-opacity="1" stop-color="rgb(17.298889%, 50.813293%, 80.212402%)" offset="0.757812"/><stop stop-opacity="1" stop-color="rgb(17.448425%, 50.590515%, 80.012512%)" offset="0.761719"/><stop stop-opacity="1" stop-color="rgb(17.599487%, 50.376892%, 79.998779%)" offset="0.773438"/><stop stop-opacity="1" stop-color="rgb(17.599487%, 50.19989%, 79.986572%)" offset="0.777344"/><stop stop-opacity="1" stop-color="rgb(17.599487%, 50.19989%, 79.786682%)" offset="0.78125"/><stop stop-opacity="1" stop-color="rgb(17.599487%, 50.195312%, 79.598999%)" offset="0.785156"/><stop stop-opacity="1" stop-color="rgb(17.599487%, 49.996948%, 79.598999%)" offset="0.789062"/><stop stop-opacity="1" stop-color="rgb(17.793274%, 49.80011%, 79.598999%)" offset="0.792969"/><stop stop-opacity="1" stop-color="rgb(17.993164%, 49.798584%, 79.598999%)" offset="0.796875"/><stop stop-opacity="1" stop-color="rgb(17.999268%, 49.798584%, 79.414368%)" offset="0.800781"/><stop stop-opacity="1" stop-color="rgb(17.999268%, 49.61853%, 79.214478%)" offset="0.804688"/><stop stop-opacity="1" stop-color="rgb(18.173218%, 49.41864%, 79.199219%)" offset="0.808594"/><stop stop-opacity="1" stop-color="rgb(18.383789%, 49.388123%, 79.188538%)" offset="0.8125"/><stop stop-opacity="1" stop-color="rgb(18.608093%, 49.188232%, 78.988647%)" offset="0.816406"/><stop stop-opacity="1" stop-color="rgb(18.798828%, 48.997498%, 78.799438%)" offset="0.824219"/><stop stop-opacity="1" stop-color="rgb(18.798828%, 48.802185%, 78.799438%)" offset="0.832031"/><stop stop-opacity="1" stop-color="rgb(18.989563%, 48.602295%, 78.607178%)" offset="0.839844"/><stop stop-opacity="1" stop-color="rgb(19.189453%, 48.497009%, 78.407288%)" offset="0.847656"/><stop stop-opacity="1" stop-color="rgb(19.198608%, 48.297119%, 78.399658%)" offset="0.851562"/><stop stop-opacity="1" stop-color="rgb(19.303894%, 48.094177%, 78.294373%)" offset="0.859375"/><stop stop-opacity="1" stop-color="rgb(19.503784%, 47.894287%, 78.094482%)" offset="0.867188"/><stop stop-opacity="1" stop-color="rgb(19.784546%, 47.659302%, 77.999878%)" offset="0.882812"/><stop stop-opacity="1" stop-color="rgb(19.984436%, 47.509766%, 77.818298%)" offset="0.886719"/><stop stop-opacity="1" stop-color="rgb(19.999695%, 47.499084%, 77.616882%)" offset="0.890625"/><stop stop-opacity="1" stop-color="rgb(20.021057%, 47.476196%, 77.598572%)" offset="0.894531"/><stop stop-opacity="1" stop-color="rgb(20.220947%, 47.273254%, 77.449036%)" offset="0.898438"/><stop stop-opacity="1" stop-color="rgb(20.399475%, 46.896362%, 77.2995%)" offset="0.910156"/><stop stop-opacity="1" stop-color="rgb(20.593262%, 46.699524%, 77.2995%)" offset="0.917969"/><stop stop-opacity="1" stop-color="rgb(20.793152%, 46.508789%, 77.108765%)" offset="0.925781"/><stop stop-opacity="1" stop-color="rgb(20.799255%, 46.289062%, 76.908875%)" offset="0.933594"/><stop stop-opacity="1" stop-color="rgb(20.799255%, 46.078491%, 76.899719%)" offset="0.941406"/><stop stop-opacity="1" stop-color="rgb(20.809937%, 45.899963%, 76.899719%)" offset="0.945312"/><stop stop-opacity="1" stop-color="rgb(21.009827%, 45.892334%, 76.89209%)" offset="0.949219"/><stop stop-opacity="1" stop-color="rgb(21.199036%, 45.692444%, 76.6922%)" offset="0.953125"/><stop stop-opacity="1" stop-color="rgb(21.395874%, 45.498657%, 76.499939%)" offset="0.957031"/><stop stop-opacity="1" stop-color="rgb(21.594238%, 45.307922%, 76.499939%)" offset="0.964844"/><stop stop-opacity="1" stop-color="rgb(21.598816%, 45.108032%, 76.321411%)" offset="0.972656"/><stop stop-opacity="1" stop-color="rgb(21.798706%, 45.08667%, 76.119995%)" offset="0.976562"/><stop stop-opacity="1" stop-color="rgb(21.998596%, 44.88678%, 76.098633%)" offset="0.980469"/><stop stop-opacity="1" stop-color="rgb(21.998596%, 44.699097%, 76.094055%)" offset="0.988281"/><stop stop-opacity="1" stop-color="rgb(21.998596%, 44.699097%, 75.894165%)" offset="0.992188"/><stop stop-opacity="1" stop-color="rgb(21.998596%, 44.699097%, 75.698853%)" offset="1"/></radialGradient></defs><g clip-path="url(#0fa4b958d2)"><g clip-path="url(#d2f9683ad5)"><g clip-path="url(#7d5d196be6)"><g clip-path="url(#d989c1fe35)"><path fill="url(#584badcd0c)" d="M 368.59375 127.433594 L 163.566406 -37.242188 L 6.402344 158.429688 L 211.433594 323.105469 Z M 368.59375 127.433594 " fill-rule="nonzero"/></g></g></g></g><path fill="#ffffff" d="M 149.09375 184.710938 C 148.714844 184.773438 148.328125 184.796875 147.945312 184.847656 C 147.742188 184.871094 147.582031 184.878906 147.421875 184.890625 L 146.9375 184.925781 L 146.8125 184.9375 L 146.753906 184.941406 L 146.660156 184.945312 L 146.285156 184.953125 L 145.527344 184.972656 L 144.953125 184.984375 L 144.222656 184.996094 C 143.433594 185 142.640625 184.964844 141.851562 184.90625 C 135.53125 184.421875 129.28125 181.921875 124.132812 177.863281 C 121.5625 175.835938 119.269531 173.4375 117.367188 170.773438 C 115.449219 168.117188 113.910156 165.203125 112.859375 162.132812 C 112.332031 160.597656 111.917969 159.027344 111.636719 157.4375 C 111.5625 157.039062 111.507812 156.636719 111.445312 156.238281 C 111.398438 155.84375 111.339844 155.414062 111.308594 155.082031 C 111.292969 154.898438 111.273438 154.765625 111.253906 154.480469 L 111.210938 153.824219 L 111.171875 152.585938 C 111.097656 149.289062 111.472656 145.984375 112.351562 142.796875 C 112.800781 141.203125 113.347656 139.636719 114.019531 138.117188 C 114.703125 136.601562 115.492188 135.132812 116.382812 133.71875 C 118.183594 130.910156 120.359375 128.300781 122.921875 126.105469 C 124.773438 124.480469 126.820312 123.078125 128.992188 121.894531 C 128.972656 121.902344 128.953125 121.90625 128.933594 121.910156 C 127.285156 122.382812 125.683594 122.976562 124.128906 123.667969 C 121.027344 125.0625 118.125 126.878906 115.585938 129.109375 C 113.023438 131.304688 110.847656 133.914062 109.046875 136.722656 C 108.15625 138.136719 107.367188 139.609375 106.683594 141.121094 C 106.015625 142.640625 105.464844 144.207031 105.015625 145.796875 C 104.140625 148.988281 103.765625 152.289062 103.835938 155.59375 L 103.875 156.828125 L 103.921875 157.484375 C 103.9375 157.765625 103.957031 157.902344 103.976562 158.085938 C 104.003906 158.417969 104.0625 158.847656 104.113281 159.242188 C 104.171875 159.644531 104.226562 160.042969 104.304688 160.441406 C 104.582031 162.03125 104.996094 163.601562 105.523438 165.136719 C 106.574219 168.207031 108.117188 171.125 110.03125 173.777344 C 111.933594 176.441406 114.226562 178.839844 116.800781 180.867188 C 121.945312 184.925781 128.199219 187.425781 134.515625 187.914062 C 135.308594 187.96875 136.097656 188.003906 136.890625 188 L 137.617188 187.992188 L 138.195312 187.976562 L 138.949219 187.957031 L 139.328125 187.949219 L 139.417969 187.949219 L 139.480469 187.941406 L 139.601562 187.933594 L 140.089844 187.894531 C 140.25 187.886719 140.40625 187.878906 140.609375 187.851562 C 140.996094 187.800781 141.378906 187.78125 141.761719 187.710938 C 142.527344 187.605469 143.289062 187.464844 144.050781 187.289062 C 146.925781 186.632812 149.773438 185.496094 152.558594 183.992188 C 152.167969 184.097656 151.777344 184.195312 151.386719 184.285156 C 150.625 184.460938 149.859375 184.597656 149.09375 184.710938 " fill-opacity="1" fill-rule="nonzero"/><path fill="#ffffff" d="M 278.386719 152.191406 L 278.386719 151.90625 C 278.386719 151.523438 278.386719 151.140625 278.367188 150.757812 C 278.355469 150.375 278.332031 149.988281 278.296875 149.605469 C 278.175781 148.070312 277.925781 146.527344 277.523438 145.015625 C 276.722656 141.984375 275.339844 139.0625 273.429688 136.5 C 271.535156 133.925781 269.113281 131.710938 266.335938 130.046875 C 263.558594 128.386719 260.445312 127.25 257.207031 126.773438 C 255.59375 126.519531 253.949219 126.449219 252.308594 126.515625 C 250.671875 126.605469 249.042969 126.851562 247.453125 127.238281 C 245.34375 127.765625 243.308594 128.5625 241.40625 129.5625 C 241.789062 129.449219 242.171875 129.339844 242.5625 129.246094 C 244.152344 128.851562 245.777344 128.605469 247.417969 128.523438 C 249.054688 128.453125 250.703125 128.523438 252.316406 128.773438 C 255.550781 129.253906 258.667969 130.390625 261.445312 132.050781 C 264.21875 133.714844 266.640625 135.929688 268.539062 138.5 C 270.449219 141.066406 271.828125 143.988281 272.632812 147.015625 C 273.03125 148.53125 273.285156 150.074219 273.40625 151.609375 C 273.4375 151.992188 273.464844 152.378906 273.472656 152.761719 C 273.492188 153.144531 273.496094 153.527344 273.496094 153.910156 L 273.496094 154.308594 L 273.492188 154.367188 L 273.488281 154.496094 L 273.472656 155.082031 C 273.453125 155.421875 273.441406 155.730469 273.40625 156.15625 C 273.378906 156.5625 273.335938 156.925781 273.300781 157.304688 C 273.25 157.679688 273.207031 158.054688 273.148438 158.425781 C 273.035156 159.167969 272.890625 159.910156 272.71875 160.644531 C 272.375 162.109375 271.917969 163.539062 271.359375 164.925781 C 270.238281 167.699219 268.71875 170.285156 266.847656 172.566406 C 264.980469 174.847656 262.789062 176.832031 260.378906 178.449219 C 259.519531 179.019531 258.628906 179.542969 257.714844 180.015625 C 260.371094 179.203125 262.925781 178.003906 265.269531 176.445312 C 267.683594 174.828125 269.875 172.84375 271.742188 170.5625 C 273.609375 168.285156 275.128906 165.695312 276.25 162.921875 C 276.808594 161.539062 277.265625 160.101562 277.613281 158.640625 C 277.785156 157.90625 277.925781 157.167969 278.039062 156.421875 C 278.101562 156.050781 278.144531 155.675781 278.191406 155.300781 C 278.226562 154.921875 278.273438 154.558594 278.296875 154.152344 C 278.332031 153.726562 278.34375 153.417969 278.367188 153.078125 L 278.382812 152.492188 L 278.386719 152.367188 L 278.386719 152.191406 " fill-opacity="1" fill-rule="nonzero"/><g fill="#ffffff" fill-opacity="1"><g transform="translate(22.247929, 288.128109)"><g><path d="M 20.5625 0.875 C 30.96875 0.875 37.359375 -4.078125 37.359375 -12.34375 C 37.359375 -19.3125 32.78125 -23.4375 21.875 -26.015625 C 15.171875 -27.578125 12.84375 -29.28125 12.84375 -31.96875 C 12.84375 -34.859375 15.421875 -36.609375 19.625 -36.609375 C 24.203125 -36.609375 26.953125 -34.234375 26.953125 -30.28125 L 36.546875 -30.28125 C 36.546875 -39.109375 29.90625 -44.765625 19.5 -44.765625 C 9.40625 -44.765625 3.140625 -39.8125 3.140625 -31.78125 C 3.140625 -24.640625 7.96875 -20.375 18.234375 -18.171875 C 24.453125 -16.859375 27.265625 -15.046875 27.265625 -11.96875 C 27.265625 -9.03125 24.640625 -7.328125 20.5 -7.328125 C 15.671875 -7.328125 12.53125 -9.78125 12.53125 -13.984375 L 2.765625 -13.984375 C 2.765625 -4.890625 9.53125 0.875 20.5625 0.875 Z M 20.5625 0.875 "/></g></g></g><g fill="#ffffff" fill-opacity="1"><g transform="translate(61.799794, 288.128109)"><g><path d="M 4.765625 0 L 14.296875 0 L 14.296875 -12.53125 L 19.4375 -12.53125 L 26.703125 0 L 37.796875 0 L 28.328125 -15.734375 C 30.09375 -17.296875 31.46875 -19.5 32.53125 -22.4375 L 36.359375 -32.90625 L 26.078125 -32.90625 L 23.765625 -25.765625 C 22.5 -22.0625 20.75 -21.0625 16.734375 -21.0625 L 14.296875 -21.0625 L 14.296875 -46.390625 L 4.765625 -46.390625 Z M 4.765625 0 "/></g></g></g><g fill="#ffffff" fill-opacity="1"><g transform="translate(100.599478, 288.128109)"><g><path d="M 4.890625 12.53125 L 9.34375 12.53125 C 16.984375 12.53125 20.1875 10.65625 22.875 3.890625 L 37.546875 -32.90625 L 27.328125 -32.90625 L 22.9375 -20.9375 L 19.9375 -12.53125 L 11.09375 -32.90625 L 0.5625 -32.90625 L 15.359375 -1.0625 L 14.984375 0.0625 C 13.859375 3.328125 12.53125 4.328125 8.65625 4.328125 L 4.890625 4.328125 Z M 4.890625 12.53125 "/></g></g></g><g fill="#ffffff" fill-opacity="1"><g transform="translate(138.649668, 288.128109)"><g><path d="M 15.421875 0 L 20.5625 0 L 33.71875 -35.546875 L 41 -15.984375 L 46.953125 0 L 52.09375 0 L 66.390625 -43.875 L 60.625 -43.875 L 49.328125 -8.78125 L 36.359375 -43.875 L 31.15625 -43.875 L 18.171875 -8.84375 L 13.03125 -24.953125 L 6.953125 -43.875 L 1.1875 -43.875 Z M 15.421875 0 "/></g></g></g><g fill="#ffffff" fill-opacity="1"><g transform="translate(205.593356, 288.128109)"><g><path d="M 16.484375 0.5 C 21.75 0.5 25.890625 -1.1875 28.84375 -4.515625 L 29.40625 0 L 33.71875 0 L 33.71875 -20.6875 C 33.71875 -28.203125 28.015625 -33.34375 19.5 -33.34375 C 12.40625 -33.34375 7.078125 -29.53125 5.640625 -23.25 L 10.96875 -23.25 C 12.03125 -26.453125 15.359375 -28.453125 19.5625 -28.453125 C 25.078125 -28.453125 28.453125 -25.390625 28.453125 -20.3125 L 28.453125 -19.125 L 15.171875 -19.125 C 8.40625 -19.125 3.953125 -15.296875 3.953125 -9.40625 C 3.953125 -3.265625 8.65625 0.5 16.484375 0.5 Z M 9.21875 -9.46875 C 9.21875 -12.53125 11.71875 -14.484375 15.359375 -14.484375 L 28.515625 -14.484375 C 28.328125 -8.46875 23.4375 -4.203125 16.671875 -4.203125 C 12.09375 -4.203125 9.21875 -6.265625 9.21875 -9.46875 Z M 9.21875 -9.46875 "/></g></g></g><g fill="#ffffff" fill-opacity="1"><g transform="translate(243.828903, 288.128109)"><g><path d="M 19.875 0 L 24.765625 0 L 24.765625 -5.078125 L 20.125 -5.078125 C 15.796875 -5.078125 13.796875 -7.265625 13.796875 -11.96875 L 13.796875 -27.703125 L 24.328125 -27.703125 L 24.328125 -32.53125 L 13.796875 -32.53125 L 13.796875 -40.625 L 9.71875 -40.625 L 9.21875 -36.234375 C 8.84375 -33.28125 7.96875 -32.53125 4.953125 -32.53125 L 1.6875 -32.53125 L 1.6875 -27.703125 L 8.53125 -27.703125 L 8.53125 -11.71875 C 8.53125 -4.265625 12.65625 0 19.875 0 Z M 19.875 0 "/></g></g></g><g fill="#ffffff" fill-opacity="1"><g transform="translate(271.032509, 288.128109)"><g><path d="M 20 0.8125 C 28.140625 0.8125 34.484375 -4.078125 36.671875 -11.96875 L 31.09375 -11.96875 C 29.46875 -7.265625 25.265625 -4.265625 20 -4.265625 C 13.296875 -4.265625 8.53125 -9.21875 8.53125 -16.296875 C 8.53125 -23.3125 13.296875 -28.328125 20 -28.328125 C 24.953125 -28.328125 29.03125 -25.640625 30.96875 -21.125 L 36.296875 -21.125 C 34.671875 -28.453125 28.078125 -33.34375 20 -33.34375 C 10.21875 -33.34375 3.265625 -26.203125 3.265625 -16.296875 C 3.265625 -6.328125 10.21875 0.8125 20 0.8125 Z M 20 0.8125 "/></g></g></g><g fill="#ffffff" fill-opacity="1"><g transform="translate(310.145617, 288.128109)"><g><path d="M 5.828125 0 L 11.09375 0 L 11.09375 -16.609375 C 11.09375 -23.765625 15.421875 -28.328125 21.5625 -28.328125 C 27.203125 -28.328125 30.71875 -24.328125 30.71875 -17.796875 L 30.71875 0 L 35.984375 0 L 35.984375 -18.3125 C 35.984375 -27.578125 30.84375 -33.34375 22.25 -33.34375 C 18.046875 -33.34375 13.921875 -31.78125 11.09375 -28.265625 L 11.09375 -46.390625 L 5.828125 -46.390625 Z M 5.828125 0 "/></g></g></g></svg>