<svg xmlns="http://www.w3.org/2000/svg" xmlns:xlink="http://www.w3.org/1999/xlink" width="500" zoomAndPan="magnify" viewBox="0 0 375 374.999991" height="500" preserveAspectRatio="xMidYMid meet" version="1.0"><defs><g/><clipPath id="23f165304f"><path d="M 74.875 70.464844 L 299.875 70.464844 L 299.875 216.570312 L 74.875 216.570312 Z M 74.875 70.464844 " clip-rule="nonzero"/></clipPath><clipPath id="95e71ed506"><path d="M 300.117188 154.234375 L 300.117188 153.699219 C 300.117188 152.984375 300.113281 152.265625 300.078125 151.546875 C 300.058594 150.828125 300.011719 150.109375 299.949219 149.390625 C 299.722656 146.511719 299.25 143.625 298.5 140.785156 C 296.996094 135.113281 294.40625 129.636719 290.832031 124.828125 C 287.273438 120.007812 282.734375 115.851562 277.535156 112.734375 C 272.332031 109.625 266.496094 107.496094 260.429688 106.597656 C 257.398438 106.128906 254.316406 105.996094 251.246094 106.121094 C 248.179688 106.28125 245.125 106.746094 242.144531 107.476562 C 236.191406 108.964844 230.566406 111.5625 225.609375 114.941406 C 224.980469 115.359375 224.371094 115.792969 223.773438 116.242188 C 223.164062 116.675781 222.582031 117.140625 221.996094 117.601562 C 221.402344 118.058594 220.847656 118.546875 220.28125 119.023438 L 219.855469 119.386719 L 219.414062 119.785156 L 218.539062 120.589844 L 218.113281 120.984375 L 217.777344 121.3125 L 217.105469 121.972656 L 216.933594 122.136719 L 216.648438 122.429688 L 216.277344 122.8125 L 215.535156 123.585938 C 214.574219 124.613281 213.640625 125.644531 212.75 126.675781 C 209.179688 130.796875 206.035156 134.921875 202.949219 139.007812 C 199.875 143.089844 196.890625 147.128906 193.941406 151.125 C 188.03125 159.089844 182.054688 166.777344 175.632812 173.675781 C 172.441406 177.132812 169.132812 180.382812 165.6875 183.292969 C 162.246094 186.199219 158.683594 188.785156 155.007812 190.839844 C 151.328125 192.890625 147.5625 194.425781 143.757812 195.292969 C 142.804688 195.511719 141.851562 195.683594 140.894531 195.824219 C 140.417969 195.902344 139.9375 195.929688 139.457031 195.992188 C 139.203125 196.027344 139.003906 196.035156 138.804688 196.050781 L 138.042969 196.109375 L 137.96875 196.117188 L 137.851562 196.117188 L 137.378906 196.128906 L 136.4375 196.148438 L 135.714844 196.167969 L 134.804688 196.179688 C 133.816406 196.1875 132.824219 196.140625 131.839844 196.070312 C 123.941406 195.464844 116.125 192.339844 109.691406 187.265625 C 106.476562 184.730469 103.609375 181.734375 101.230469 178.402344 C 98.835938 175.085938 96.910156 171.4375 95.597656 167.601562 C 94.9375 165.683594 94.421875 163.722656 94.070312 161.730469 C 93.976562 161.230469 93.90625 160.734375 93.832031 160.234375 C 93.773438 159.742188 93.695312 159.199219 93.660156 158.789062 C 93.640625 158.558594 93.613281 158.390625 93.59375 158.035156 L 93.535156 157.21875 L 93.488281 155.667969 C 93.398438 151.542969 93.867188 147.414062 94.964844 143.429688 C 95.523438 141.4375 96.210938 139.480469 97.046875 137.578125 C 97.902344 135.6875 98.890625 133.851562 100 132.082031 C 102.253906 128.574219 104.96875 125.3125 108.175781 122.5625 C 111.347656 119.777344 114.980469 117.507812 118.851562 115.761719 C 120.796875 114.898438 122.800781 114.15625 124.859375 113.566406 C 126.921875 113.003906 129.03125 112.578125 131.167969 112.289062 L 135.015625 111.765625 L 136.667969 108.988281 C 137.90625 106.902344 139.277344 104.890625 140.773438 102.96875 C 142.265625 101.042969 143.867188 99.191406 145.585938 97.445312 C 149.023438 93.953125 152.921875 90.875 157.152344 88.304688 C 161.371094 85.710938 165.941406 83.632812 170.734375 82.152344 C 173.128906 81.417969 175.574219 80.808594 178.058594 80.351562 C 178.683594 80.246094 179.304688 80.132812 179.929688 80.039062 L 181.808594 79.78125 L 183.636719 79.585938 L 185.675781 79.445312 L 187.523438 79.367188 L 189.4375 79.347656 C 190.714844 79.359375 191.992188 79.386719 193.273438 79.464844 C 195.832031 79.621094 198.390625 79.933594 200.925781 80.410156 C 205.996094 81.375 211.011719 82.921875 215.78125 85.121094 C 218.164062 86.222656 220.507812 87.449219 222.769531 88.835938 C 225.027344 90.222656 227.210938 91.753906 229.3125 93.40625 C 231.417969 95.066406 233.417969 96.867188 235.332031 98.777344 C 237.238281 100.699219 239.046875 102.722656 240.742188 104.878906 C 239.460938 102.46875 238.011719 100.113281 236.398438 97.875 C 234.796875 95.628906 233.023438 93.484375 231.121094 91.449219 C 229.226562 89.410156 227.175781 87.492188 225.007812 85.707031 C 222.839844 83.925781 220.554688 82.25 218.152344 80.753906 C 213.347656 77.757812 208.136719 75.308594 202.640625 73.609375 C 199.894531 72.757812 197.089844 72.070312 194.242188 71.5625 C 192.816406 71.308594 191.382812 71.09375 189.941406 70.9375 C 189.21875 70.867188 188.5 70.785156 187.773438 70.730469 L 186.691406 70.660156 L 186.144531 70.621094 L 185.738281 70.597656 L 185.703125 70.59375 L 185.597656 70.59375 L 185.535156 70.589844 L 183.488281 70.519531 L 181.238281 70.515625 L 179.042969 70.582031 C 178.3125 70.613281 177.582031 70.671875 176.851562 70.714844 C 173.933594 70.933594 171.015625 71.339844 168.132812 71.953125 C 162.367188 73.160156 156.71875 75.101562 151.378906 77.734375 C 146.046875 80.382812 141.035156 83.722656 136.488281 87.640625 C 134.21875 89.601562 132.054688 91.699219 130.039062 93.945312 C 128.851562 95.269531 127.71875 96.640625 126.632812 98.050781 C 124.867188 98.253906 123.101562 98.519531 121.351562 98.875 C 118.519531 99.46875 115.730469 100.277344 113 101.273438 C 110.269531 102.273438 107.640625 103.539062 105.089844 104.941406 C 102.535156 106.347656 100.101562 107.972656 97.789062 109.757812 C 95.476562 111.542969 93.277344 113.488281 91.257812 115.613281 C 89.238281 117.738281 87.328125 119.980469 85.648438 122.398438 C 83.964844 124.816406 82.449219 127.351562 81.117188 129.988281 C 79.800781 132.632812 78.6875 135.382812 77.757812 138.199219 C 75.941406 143.839844 74.933594 149.769531 74.875 155.703125 L 74.875 157.925781 L 74.914062 158.992188 C 74.917969 159.265625 74.953125 159.726562 74.976562 160.121094 C 75.023438 160.960938 75.097656 161.671875 75.167969 162.429688 C 75.253906 163.175781 75.335938 163.925781 75.449219 164.667969 C 75.875 167.648438 76.542969 170.589844 77.425781 173.457031 C 79.191406 179.199219 81.824219 184.644531 85.179688 189.578125 C 88.554688 194.5 92.621094 198.925781 97.234375 202.710938 C 101.84375 206.496094 107.015625 209.632812 112.574219 211.96875 C 118.132812 214.304688 124.097656 215.777344 130.167969 216.304688 C 131.6875 216.429688 133.214844 216.507812 134.738281 216.519531 L 136.878906 216.5 L 137.820312 216.480469 L 138.292969 216.472656 L 138.414062 216.46875 L 138.570312 216.460938 L 138.890625 216.445312 L 140.164062 216.367188 C 140.589844 216.339844 141.019531 216.3125 141.390625 216.269531 C 142.160156 216.183594 142.933594 216.121094 143.699219 216 C 145.230469 215.789062 146.753906 215.515625 148.253906 215.175781 C 154.265625 213.824219 159.902344 211.5 164.988281 208.621094 C 170.085938 205.746094 174.683594 202.371094 178.894531 198.753906 C 183.101562 195.128906 186.9375 191.269531 190.53125 187.308594 C 197.6875 179.347656 203.890625 170.972656 209.816406 162.683594 C 212.789062 158.546875 215.640625 154.390625 218.492188 150.347656 C 221.34375 146.3125 224.195312 142.351562 227.105469 138.777344 C 227.828125 137.878906 228.558594 137.027344 229.289062 136.195312 L 229.835938 135.585938 L 230.109375 135.285156 C 230.085938 135.308594 230.265625 135.121094 230.070312 135.320312 L 230.152344 135.234375 L 230.316406 135.066406 L 230.96875 134.382812 L 231.292969 134.042969 L 231.554688 133.789062 L 232.050781 133.300781 L 232.296875 133.054688 L 232.582031 132.792969 C 232.960938 132.445312 233.328125 132.078125 233.722656 131.753906 C 234.109375 131.417969 234.496094 131.078125 234.898438 130.765625 C 235.292969 130.441406 235.691406 130.125 236.101562 129.828125 C 239.34375 127.390625 242.921875 125.558594 246.683594 124.425781 C 250.449219 123.320312 254.398438 122.894531 258.316406 123.25 C 262.238281 123.589844 266.113281 124.746094 269.664062 126.585938 C 273.191406 128.460938 276.445312 130.960938 279.082031 134.070312 C 281.746094 137.15625 283.804688 140.800781 285.175781 144.765625 C 285.878906 146.742188 286.398438 148.804688 286.742188 150.921875 C 286.832031 151.449219 286.914062 151.984375 286.972656 152.519531 C 287.046875 153.054688 287.089844 153.59375 287.136719 154.132812 L 287.171875 154.539062 C 287.171875 154.539062 287.179688 154.679688 287.179688 154.566406 L 287.183594 154.683594 L 287.21875 155.394531 L 287.230469 155.628906 L 287.234375 155.746094 C 287.242188 155.46875 287.238281 155.734375 287.242188 155.707031 C 287.257812 156.328125 287.277344 157.007812 287.273438 157.464844 C 287.285156 157.960938 287.265625 158.53125 287.257812 159.082031 C 287.230469 159.628906 287.21875 160.183594 287.167969 160.730469 C 287.101562 161.832031 286.972656 162.933594 286.816406 164.03125 C 286.515625 166.222656 286.042969 168.402344 285.40625 170.542969 C 282.851562 179.101562 277.671875 187.050781 270.5625 192.992188 C 267.027344 195.980469 263.019531 198.476562 258.6875 200.332031 C 254.367188 202.207031 249.722656 203.453125 244.941406 203.980469 C 240.164062 204.53125 235.246094 204.367188 230.402344 203.519531 C 225.5625 202.636719 220.789062 201.0625 216.265625 198.808594 C 220.3125 201.828125 224.882812 204.257812 229.777344 205.921875 C 234.671875 207.597656 239.867188 208.480469 245.136719 208.625 C 250.40625 208.734375 255.746094 208.042969 260.902344 206.535156 C 266.046875 205.011719 271 202.699219 275.539062 199.6875 C 280.058594 196.65625 284.164062 192.9375 287.664062 188.664062 C 291.167969 184.394531 294.011719 179.542969 296.113281 174.347656 C 297.164062 171.75 298.019531 169.0625 298.664062 166.320312 C 298.988281 164.945312 299.257812 163.558594 299.464844 162.164062 C 299.582031 161.464844 299.660156 160.761719 299.75 160.0625 C 299.824219 159.355469 299.902344 158.671875 299.953125 157.910156 C 300.015625 157.113281 300.039062 156.535156 300.078125 155.902344 L 300.109375 154.796875 L 300.121094 154.445312 Z M 300.117188 154.234375 " clip-rule="nonzero"/></clipPath><clipPath id="9ce08ae0c7"><path d="M 300.117188 154.234375 L 300.117188 153.699219 C 300.117188 152.984375 300.113281 152.265625 300.078125 151.546875 C 300.058594 150.828125 300.011719 150.109375 299.949219 149.390625 C 299.722656 146.511719 299.25 143.625 298.5 140.785156 C 296.996094 135.113281 294.40625 129.636719 290.832031 124.828125 C 287.273438 120.007812 282.734375 115.851562 277.535156 112.734375 C 272.332031 109.625 266.496094 107.496094 260.429688 106.597656 C 257.398438 106.128906 254.316406 105.996094 251.246094 106.121094 C 248.179688 106.28125 245.125 106.746094 242.144531 107.476562 C 236.191406 108.964844 230.566406 111.5625 225.609375 114.941406 C 224.980469 115.359375 224.371094 115.792969 223.773438 116.242188 C 223.164062 116.675781 222.582031 117.140625 221.996094 117.601562 C 221.402344 118.058594 220.847656 118.546875 220.28125 119.023438 L 219.855469 119.386719 L 219.414062 119.785156 L 218.539062 120.589844 L 218.113281 120.984375 L 217.777344 121.3125 L 217.105469 121.972656 L 216.933594 122.136719 L 216.648438 122.429688 L 216.277344 122.8125 L 215.535156 123.585938 C 214.574219 124.613281 213.640625 125.644531 212.75 126.675781 C 209.179688 130.796875 206.035156 134.921875 202.949219 139.007812 C 199.875 143.089844 196.890625 147.128906 193.941406 151.125 C 188.03125 159.089844 182.054688 166.777344 175.632812 173.675781 C 172.441406 177.132812 169.132812 180.382812 165.6875 183.292969 C 162.246094 186.199219 158.683594 188.785156 155.007812 190.839844 C 151.328125 192.890625 147.5625 194.425781 143.757812 195.292969 C 142.804688 195.511719 141.851562 195.683594 140.894531 195.824219 C 140.417969 195.902344 139.9375 195.929688 139.457031 195.992188 C 139.203125 196.027344 139.003906 196.035156 138.804688 196.050781 L 138.042969 196.109375 L 137.96875 196.117188 L 137.851562 196.117188 L 137.378906 196.128906 L 136.4375 196.148438 L 135.714844 196.167969 L 134.804688 196.179688 C 133.816406 196.1875 132.824219 196.140625 131.839844 196.070312 C 123.941406 195.464844 116.125 192.339844 109.691406 187.265625 C 106.476562 184.730469 103.609375 181.734375 101.230469 178.402344 C 98.835938 175.085938 96.910156 171.4375 95.597656 167.601562 C 94.9375 165.683594 94.421875 163.722656 94.070312 161.730469 C 93.976562 161.230469 93.90625 160.734375 93.832031 160.234375 C 93.773438 159.742188 93.695312 159.199219 93.660156 158.789062 C 93.640625 158.558594 93.613281 158.390625 93.59375 158.035156 L 93.535156 157.21875 L 93.488281 155.667969 C 93.398438 151.542969 93.867188 147.414062 94.964844 143.429688 C 95.523438 141.4375 96.210938 139.480469 97.046875 137.578125 C 97.902344 135.6875 98.890625 133.851562 100 132.082031 C 102.253906 128.574219 104.96875 125.3125 108.175781 122.5625 C 111.347656 119.777344 114.980469 117.507812 118.851562 115.761719 C 120.796875 114.898438 122.800781 114.15625 124.859375 113.566406 C 126.921875 113.003906 129.03125 112.578125 131.167969 112.289062 L 135.015625 111.765625 L 136.667969 108.988281 C 137.90625 106.902344 139.277344 104.890625 140.773438 102.96875 C 142.265625 101.042969 143.867188 99.191406 145.585938 97.445312 C 149.023438 93.953125 152.921875 90.875 157.152344 88.304688 C 161.371094 85.710938 165.941406 83.632812 170.734375 82.152344 C 173.128906 81.417969 175.574219 80.808594 178.058594 80.351562 C 178.683594 80.246094 179.304688 80.132812 179.929688 80.039062 L 181.808594 79.78125 L 183.636719 79.585938 L 185.675781 79.445312 L 187.523438 79.367188 L 189.4375 79.347656 C 190.714844 79.359375 191.992188 79.386719 193.273438 79.464844 C 195.832031 79.621094 198.390625 79.933594 200.925781 80.410156 C 205.996094 81.375 211.011719 82.921875 215.78125 85.121094 C 218.164062 86.222656 220.507812 87.449219 222.769531 88.835938 C 225.027344 90.222656 227.210938 91.753906 229.3125 93.40625 C 231.417969 95.066406 233.417969 96.867188 235.332031 98.777344 C 237.238281 100.699219 239.046875 102.722656 240.742188 104.878906 C 239.460938 102.46875 238.011719 100.113281 236.398438 97.875 C 234.796875 95.628906 233.023438 93.484375 231.121094 91.449219 C 229.226562 89.410156 227.175781 87.492188 225.007812 85.707031 C 222.839844 83.925781 220.554688 82.25 218.152344 80.753906 C 213.347656 77.757812 208.136719 75.308594 202.640625 73.609375 C 199.894531 72.757812 197.089844 72.070312 194.242188 71.5625 C 192.816406 71.308594 191.382812 71.09375 189.941406 70.9375 C 189.21875 70.867188 188.5 70.785156 187.773438 70.730469 L 186.691406 70.660156 L 186.144531 70.621094 L 185.738281 70.597656 L 185.703125 70.59375 L 185.597656 70.59375 L 185.535156 70.589844 L 183.488281 70.519531 L 181.238281 70.515625 L 179.042969 70.582031 C 178.3125 70.613281 177.582031 70.671875 176.851562 70.714844 C 173.933594 70.933594 171.015625 71.339844 168.132812 71.953125 C 162.367188 73.160156 156.71875 75.101562 151.378906 77.734375 C 146.046875 80.382812 141.035156 83.722656 136.488281 87.640625 C 134.21875 89.601562 132.054688 91.699219 130.039062 93.945312 C 128.851562 95.269531 127.71875 96.640625 126.632812 98.050781 C 124.867188 98.253906 123.101562 98.519531 121.351562 98.875 C 118.519531 99.46875 115.730469 100.277344 113 101.273438 C 110.269531 102.273438 107.640625 103.539062 105.089844 104.941406 C 102.535156 106.347656 100.101562 107.972656 97.789062 109.757812 C 95.476562 111.542969 93.277344 113.488281 91.257812 115.613281 C 89.238281 117.738281 87.328125 119.980469 85.648438 122.398438 C 83.964844 124.816406 82.449219 127.351562 81.117188 129.988281 C 79.800781 132.632812 78.6875 135.382812 77.757812 138.199219 C 75.941406 143.839844 74.933594 149.769531 74.875 155.703125 L 74.875 157.925781 L 74.914062 158.992188 C 74.917969 159.265625 74.953125 159.726562 74.976562 160.121094 C 75.023438 160.960938 75.097656 161.671875 75.167969 162.429688 C 75.253906 163.175781 75.335938 163.925781 75.449219 164.667969 C 75.875 167.648438 76.542969 170.589844 77.425781 173.457031 C 79.191406 179.199219 81.824219 184.644531 85.179688 189.578125 C 88.554688 194.5 92.621094 198.925781 97.234375 202.710938 C 101.84375 206.496094 107.015625 209.632812 112.574219 211.96875 C 118.132812 214.304688 124.097656 215.777344 130.167969 216.304688 C 131.6875 216.429688 133.214844 216.507812 134.738281 216.519531 L 136.878906 216.5 L 137.820312 216.480469 L 138.292969 216.472656 L 138.414062 216.46875 L 138.570312 216.460938 L 138.890625 216.445312 L 140.164062 216.367188 C 140.589844 216.339844 141.019531 216.3125 141.390625 216.269531 C 142.160156 216.183594 142.933594 216.121094 143.699219 216 C 145.230469 215.789062 146.753906 215.515625 148.253906 215.175781 C 154.265625 213.824219 159.902344 211.5 164.988281 208.621094 C 170.085938 205.746094 174.683594 202.371094 178.894531 198.753906 C 183.101562 195.128906 186.9375 191.269531 190.53125 187.308594 C 197.6875 179.347656 203.890625 170.972656 209.816406 162.683594 C 212.789062 158.546875 215.640625 154.390625 218.492188 150.347656 C 221.34375 146.3125 224.195312 142.351562 227.105469 138.777344 C 227.828125 137.878906 228.558594 137.027344 229.289062 136.195312 L 229.835938 135.585938 L 230.109375 135.285156 C 230.085938 135.308594 230.265625 135.121094 230.070312 135.320312 L 230.152344 135.234375 L 230.316406 135.066406 L 230.96875 134.382812 L 231.292969 134.042969 L 231.554688 133.789062 L 232.050781 133.300781 L 232.296875 133.054688 L 232.582031 132.792969 C 232.960938 132.445312 233.328125 132.078125 233.722656 131.753906 C 234.109375 131.417969 234.496094 131.078125 234.898438 130.765625 C 235.292969 130.441406 235.691406 130.125 236.101562 129.828125 C 239.34375 127.390625 242.921875 125.558594 246.683594 124.425781 C 250.449219 123.320312 254.398438 122.894531 258.316406 123.25 C 262.238281 123.589844 266.113281 124.746094 269.664062 126.585938 C 273.191406 128.460938 276.445312 130.960938 279.082031 134.070312 C 281.746094 137.15625 283.804688 140.800781 285.175781 144.765625 C 285.878906 146.742188 286.398438 148.804688 286.742188 150.921875 C 286.832031 151.449219 286.914062 151.984375 286.972656 152.519531 C 287.046875 153.054688 287.089844 153.59375 287.136719 154.132812 L 287.171875 154.539062 C 287.171875 154.539062 287.179688 154.679688 287.179688 154.566406 L 287.183594 154.683594 L 287.21875 155.394531 L 287.230469 155.628906 L 287.234375 155.746094 C 287.242188 155.46875 287.238281 155.734375 287.242188 155.707031 C 287.257812 156.328125 287.277344 157.007812 287.273438 157.464844 C 287.285156 157.960938 287.265625 158.53125 287.257812 159.082031 C 287.230469 159.628906 287.21875 160.183594 287.167969 160.730469 C 287.101562 161.832031 286.972656 162.933594 286.816406 164.03125 C 286.515625 166.222656 286.042969 168.402344 285.40625 170.542969 C 282.851562 179.101562 277.671875 187.050781 270.5625 192.992188 C 267.027344 195.980469 263.019531 198.476562 258.6875 200.332031 C 254.367188 202.207031 249.722656 203.453125 244.941406 203.980469 C 240.164062 204.53125 235.246094 204.367188 230.402344 203.519531 C 225.5625 202.636719 220.789062 201.0625 216.265625 198.808594 C 220.3125 201.828125 224.882812 204.257812 229.777344 205.921875 C 234.671875 207.597656 239.867188 208.480469 245.136719 208.625 C 250.40625 208.734375 255.746094 208.042969 260.902344 206.535156 C 266.046875 205.011719 271 202.699219 275.539062 199.6875 C 280.058594 196.65625 284.164062 192.9375 287.664062 188.664062 C 291.167969 184.394531 294.011719 179.542969 296.113281 174.347656 C 297.164062 171.75 298.019531 169.0625 298.664062 166.320312 C 298.988281 164.945312 299.257812 163.558594 299.464844 162.164062 C 299.582031 161.464844 299.660156 160.761719 299.75 160.0625 C 299.824219 159.355469 299.902344 158.671875 299.953125 157.910156 C 300.015625 157.113281 300.039062 156.535156 300.078125 155.902344 L 300.109375 154.796875 L 300.121094 154.445312 L 300.117188 154.234375 " clip-rule="nonzero"/></clipPath><clipPath id="f8f5f4ac1b"><path d="M 371.402344 127.769531 L 163.203125 -39.457031 L 3.589844 159.265625 L 211.792969 326.492188 Z M 371.402344 127.769531 " clip-rule="nonzero"/></clipPath><radialGradient gradientTransform="matrix(-0.626209, 0.779655, -0.779655, -0.626209, 243.510699, 55.278749)" gradientUnits="userSpaceOnUse" r="160.842654" cx="0" id="10d12ac449" cy="0" fx="0" fy="0"><stop stop-opacity="1" stop-color="rgb(0.193787%, 67.799377%, 93.699646%)" offset="0"/><stop stop-opacity="1" stop-color="rgb(0.393677%, 67.658997%, 93.513489%)" offset="0.0078125"/><stop stop-opacity="1" stop-color="rgb(0.39978%, 67.50946%, 93.313599%)" offset="0.0117188"/><stop stop-opacity="1" stop-color="rgb(0.39978%, 67.498779%, 93.299866%)" offset="0.015625"/><stop stop-opacity="1" stop-color="rgb(0.59967%, 67.498779%, 93.299866%)" offset="0.0195312"/><stop stop-opacity="1" stop-color="rgb(0.799561%, 67.481995%, 93.299866%)" offset="0.0234375"/><stop stop-opacity="1" stop-color="rgb(0.799561%, 67.282104%, 93.286133%)" offset="0.0273438"/><stop stop-opacity="1" stop-color="rgb(0.80719%, 67.098999%, 93.086243%)" offset="0.03125"/><stop stop-opacity="1" stop-color="rgb(1.00708%, 67.098999%, 92.89856%)" offset="0.0351562"/><stop stop-opacity="1" stop-color="rgb(1.199341%, 66.90979%, 92.89856%)" offset="0.046875"/><stop stop-opacity="1" stop-color="rgb(1.199341%, 66.7099%, 92.89856%)" offset="0.0507812"/><stop stop-opacity="1" stop-color="rgb(1.199341%, 66.699219%, 92.718506%)" offset="0.0546875"/><stop stop-opacity="1" stop-color="rgb(1.373291%, 66.699219%, 92.518616%)" offset="0.0585938"/><stop stop-opacity="1" stop-color="rgb(1.573181%, 66.677856%, 92.498779%)" offset="0.0625"/><stop stop-opacity="1" stop-color="rgb(1.61438%, 66.477966%, 92.498779%)" offset="0.0664062"/><stop stop-opacity="1" stop-color="rgb(1.81427%, 66.299438%, 92.349243%)" offset="0.0703125"/><stop stop-opacity="1" stop-color="rgb(1.998901%, 66.299438%, 92.199707%)" offset="0.0820312"/><stop stop-opacity="1" stop-color="rgb(2.191162%, 66.107178%, 92.199707%)" offset="0.0859375"/><stop stop-opacity="1" stop-color="rgb(2.391052%, 65.907288%, 92.021179%)" offset="0.0898438"/><stop stop-opacity="1" stop-color="rgb(2.415466%, 65.875244%, 91.821289%)" offset="0.101562"/><stop stop-opacity="1" stop-color="rgb(2.566528%, 65.675354%, 91.799927%)" offset="0.105469"/><stop stop-opacity="1" stop-color="rgb(2.703857%, 65.499878%, 91.793823%)" offset="0.117188"/><stop stop-opacity="1" stop-color="rgb(2.903748%, 65.499878%, 91.593933%)" offset="0.121094"/><stop stop-opacity="1" stop-color="rgb(3.09906%, 65.304565%, 91.398621%)" offset="0.125"/><stop stop-opacity="1" stop-color="rgb(3.09906%, 65.103149%, 91.398621%)" offset="0.128906"/><stop stop-opacity="1" stop-color="rgb(3.09906%, 65.098572%, 91.398621%)" offset="0.140625"/><stop stop-opacity="1" stop-color="rgb(3.29895%, 64.898682%, 91.19873%)" offset="0.144531"/><stop stop-opacity="1" stop-color="rgb(3.49884%, 64.698792%, 90.99884%)" offset="0.148438"/><stop stop-opacity="1" stop-color="rgb(3.511047%, 64.698792%, 90.99884%)" offset="0.152344"/><stop stop-opacity="1" stop-color="rgb(3.710938%, 64.698792%, 90.99884%)" offset="0.15625"/><stop stop-opacity="1" stop-color="rgb(3.898621%, 64.69574%, 90.99884%)" offset="0.160156"/><stop stop-opacity="1" stop-color="rgb(3.898621%, 64.497375%, 90.99884%)" offset="0.164062"/><stop stop-opacity="1" stop-color="rgb(4.092407%, 64.300537%, 90.805054%)" offset="0.167969"/><stop stop-opacity="1" stop-color="rgb(4.292297%, 64.299011%, 90.605164%)" offset="0.171875"/><stop stop-opacity="1" stop-color="rgb(4.299927%, 64.123535%, 90.59906%)" offset="0.183594"/><stop stop-opacity="1" stop-color="rgb(4.319763%, 63.923645%, 90.577698%)" offset="0.1875"/><stop stop-opacity="1" stop-color="rgb(4.525757%, 63.893127%, 90.377808%)" offset="0.191406"/><stop stop-opacity="1" stop-color="rgb(4.905701%, 63.693237%, 90.19928%)" offset="0.203125"/><stop stop-opacity="1" stop-color="rgb(5.28717%, 63.499451%, 90.011597%)" offset="0.214844"/><stop stop-opacity="1" stop-color="rgb(5.487061%, 63.499451%, 89.811707%)" offset="0.21875"/><stop stop-opacity="1" stop-color="rgb(5.499268%, 63.320923%, 89.7995%)" offset="0.222656"/><stop stop-opacity="1" stop-color="rgb(5.499268%, 63.121033%, 89.7995%)" offset="0.226562"/><stop stop-opacity="1" stop-color="rgb(5.499268%, 63.09967%, 89.779663%)" offset="0.230469"/><stop stop-opacity="1" stop-color="rgb(5.513%, 63.084412%, 89.579773%)" offset="0.234375"/><stop stop-opacity="1" stop-color="rgb(5.712891%, 62.884521%, 89.399719%)" offset="0.238281"/><stop stop-opacity="1" stop-color="rgb(6.09436%, 62.69989%, 89.399719%)" offset="0.25"/><stop stop-opacity="1" stop-color="rgb(6.29425%, 62.554932%, 89.205933%)" offset="0.253906"/><stop stop-opacity="1" stop-color="rgb(6.298828%, 62.40387%, 89.006042%)" offset="0.261719"/><stop stop-opacity="1" stop-color="rgb(6.396484%, 62.30011%, 88.999939%)" offset="0.269531"/><stop stop-opacity="1" stop-color="rgb(6.596375%, 62.10022%, 88.893127%)" offset="0.273438"/><stop stop-opacity="1" stop-color="rgb(6.800842%, 61.999512%, 88.691711%)" offset="0.28125"/><stop stop-opacity="1" stop-color="rgb(7.000732%, 61.901855%, 88.598633%)" offset="0.289062"/><stop stop-opacity="1" stop-color="rgb(7.191467%, 61.701965%, 88.50708%)" offset="0.296875"/><stop stop-opacity="1" stop-color="rgb(7.391357%, 61.499023%, 88.30719%)" offset="0.304688"/><stop stop-opacity="1" stop-color="rgb(7.580566%, 61.299133%, 88.198853%)" offset="0.3125"/><stop stop-opacity="1" stop-color="rgb(7.730103%, 61.199951%, 88.095093%)" offset="0.320312"/><stop stop-opacity="1" stop-color="rgb(7.798767%, 61.196899%, 87.895203%)" offset="0.328125"/><stop stop-opacity="1" stop-color="rgb(7.798767%, 61.000061%, 87.799072%)" offset="0.332031"/><stop stop-opacity="1" stop-color="rgb(7.798767%, 60.614014%, 87.658691%)" offset="0.335938"/><stop stop-opacity="1" stop-color="rgb(7.981873%, 60.411072%, 87.509155%)" offset="0.34375"/><stop stop-opacity="1" stop-color="rgb(8.280945%, 60.299683%, 87.5%)" offset="0.347656"/><stop stop-opacity="1" stop-color="rgb(8.49762%, 60.099792%, 87.391663%)" offset="0.355469"/><stop stop-opacity="1" stop-color="rgb(8.702087%, 59.999084%, 87.191772%)" offset="0.363281"/><stop stop-opacity="1" stop-color="rgb(8.901978%, 59.901428%, 87.098694%)" offset="0.371094"/><stop stop-opacity="1" stop-color="rgb(8.999634%, 59.701538%, 87.005615%)" offset="0.378906"/><stop stop-opacity="1" stop-color="rgb(9.100342%, 59.498596%, 86.805725%)" offset="0.386719"/><stop stop-opacity="1" stop-color="rgb(9.300232%, 59.298706%, 86.698914%)" offset="0.394531"/><stop stop-opacity="1" stop-color="rgb(9.503174%, 59.095764%, 86.595154%)" offset="0.402344"/><stop stop-opacity="1" stop-color="rgb(9.703064%, 58.80127%, 86.300659%)" offset="0.410156"/><stop stop-opacity="1" stop-color="rgb(9.889221%, 58.505249%, 86.004639%)" offset="0.425781"/><stop stop-opacity="1" stop-color="rgb(10.076904%, 58.399963%, 85.899353%)" offset="0.433594"/><stop stop-opacity="1" stop-color="rgb(10.284424%, 58.399963%, 85.899353%)" offset="0.4375"/><stop stop-opacity="1" stop-color="rgb(10.496521%, 58.293152%, 85.794067%)" offset="0.441406"/><stop stop-opacity="1" stop-color="rgb(10.699463%, 58.093262%, 85.594177%)" offset="0.449219"/><stop stop-opacity="1" stop-color="rgb(10.899353%, 57.902527%, 85.499573%)" offset="0.457031"/><stop stop-opacity="1" stop-color="rgb(10.998535%, 57.702637%, 85.40802%)" offset="0.464844"/><stop stop-opacity="1" stop-color="rgb(11.097717%, 57.524109%, 85.20813%)" offset="0.472656"/><stop stop-opacity="1" stop-color="rgb(11.297607%, 57.272339%, 84.996033%)" offset="0.480469"/><stop stop-opacity="1" stop-color="rgb(11.497498%, 56.996155%, 84.796143%)" offset="0.496094"/><stop stop-opacity="1" stop-color="rgb(11.697388%, 56.716919%, 84.698486%)" offset="0.503906"/><stop stop-opacity="1" stop-color="rgb(11.975098%, 56.517029%, 84.521484%)" offset="0.515625"/><stop stop-opacity="1" stop-color="rgb(12.184143%, 56.486511%, 84.321594%)" offset="0.519531"/><stop stop-opacity="1" stop-color="rgb(12.358093%, 56.286621%, 84.298706%)" offset="0.53125"/><stop stop-opacity="1" stop-color="rgb(12.5%, 56.098938%, 84.295654%)" offset="0.535156"/><stop stop-opacity="1" stop-color="rgb(12.5%, 56.098938%, 84.09729%)" offset="0.539062"/><stop stop-opacity="1" stop-color="rgb(12.5%, 56.098938%, 83.900452%)" offset="0.542969"/><stop stop-opacity="1" stop-color="rgb(12.5%, 55.909729%, 83.898926%)" offset="0.546875"/><stop stop-opacity="1" stop-color="rgb(12.5%, 55.709839%, 83.898926%)" offset="0.550781"/><stop stop-opacity="1" stop-color="rgb(12.678528%, 55.699158%, 83.898926%)" offset="0.554688"/><stop stop-opacity="1" stop-color="rgb(12.878418%, 55.699158%, 83.898926%)" offset="0.558594"/><stop stop-opacity="1" stop-color="rgb(12.919617%, 55.677795%, 83.699036%)" offset="0.5625"/><stop stop-opacity="1" stop-color="rgb(13.119507%, 55.471802%, 83.499146%)" offset="0.566406"/><stop stop-opacity="1" stop-color="rgb(13.299561%, 55.093384%, 83.49762%)" offset="0.578125"/><stop stop-opacity="1" stop-color="rgb(13.299561%, 54.899597%, 83.300781%)" offset="0.582031"/><stop stop-opacity="1" stop-color="rgb(13.299561%, 54.899597%, 83.102417%)" offset="0.585938"/><stop stop-opacity="1" stop-color="rgb(13.487244%, 54.899597%, 83.099365%)" offset="0.589844"/><stop stop-opacity="1" stop-color="rgb(13.687134%, 54.899597%, 83.099365%)" offset="0.59375"/><stop stop-opacity="1" stop-color="rgb(13.699341%, 54.721069%, 83.099365%)" offset="0.597656"/><stop stop-opacity="1" stop-color="rgb(13.722229%, 54.521179%, 83.074951%)" offset="0.601562"/><stop stop-opacity="1" stop-color="rgb(13.922119%, 54.499817%, 82.875061%)" offset="0.605469"/><stop stop-opacity="1" stop-color="rgb(14.099121%, 54.484558%, 82.699585%)" offset="0.609375"/><stop stop-opacity="1" stop-color="rgb(14.099121%, 54.284668%, 82.699585%)" offset="0.613281"/><stop stop-opacity="1" stop-color="rgb(14.103699%, 54.098511%, 82.699585%)" offset="0.617188"/><stop stop-opacity="1" stop-color="rgb(14.303589%, 54.003906%, 82.548523%)" offset="0.621094"/><stop stop-opacity="1" stop-color="rgb(14.588928%, 53.804016%, 82.398987%)" offset="0.632812"/><stop stop-opacity="1" stop-color="rgb(14.788818%, 53.601074%, 82.299805%)" offset="0.640625"/><stop stop-opacity="1" stop-color="rgb(15.005493%, 53.401184%, 82.099915%)" offset="0.648438"/><stop stop-opacity="1" stop-color="rgb(15.205383%, 53.196716%, 81.999207%)" offset="0.65625"/><stop stop-opacity="1" stop-color="rgb(15.299988%, 52.996826%, 81.90155%)" offset="0.664062"/><stop stop-opacity="1" stop-color="rgb(15.391541%, 52.806091%, 81.70166%)" offset="0.671875"/><stop stop-opacity="1" stop-color="rgb(15.591431%, 52.606201%, 81.599426%)" offset="0.679688"/><stop stop-opacity="1" stop-color="rgb(15.80658%, 52.418518%, 81.491089%)" offset="0.6875"/><stop stop-opacity="1" stop-color="rgb(16.00647%, 52.1698%, 81.193542%)" offset="0.695312"/><stop stop-opacity="1" stop-color="rgb(16.192627%, 51.899719%, 80.900574%)" offset="0.710938"/><stop stop-opacity="1" stop-color="rgb(16.392517%, 51.696777%, 80.799866%)" offset="0.71875"/><stop stop-opacity="1" stop-color="rgb(16.607666%, 51.496887%, 80.690002%)" offset="0.726562"/><stop stop-opacity="1" stop-color="rgb(16.807556%, 51.293945%, 80.488586%)" offset="0.734375"/><stop stop-opacity="1" stop-color="rgb(16.998291%, 51.094055%, 80.39856%)" offset="0.742188"/><stop stop-opacity="1" stop-color="rgb(17.198181%, 50.999451%, 80.39856%)" offset="0.75"/><stop stop-opacity="1" stop-color="rgb(17.298889%, 50.813293%, 80.212402%)" offset="0.757812"/><stop stop-opacity="1" stop-color="rgb(17.448425%, 50.590515%, 80.012512%)" offset="0.761719"/><stop stop-opacity="1" stop-color="rgb(17.599487%, 50.376892%, 79.998779%)" offset="0.773438"/><stop stop-opacity="1" stop-color="rgb(17.599487%, 50.19989%, 79.986572%)" offset="0.777344"/><stop stop-opacity="1" stop-color="rgb(17.599487%, 50.19989%, 79.786682%)" offset="0.78125"/><stop stop-opacity="1" stop-color="rgb(17.599487%, 50.195312%, 79.598999%)" offset="0.785156"/><stop stop-opacity="1" stop-color="rgb(17.599487%, 49.996948%, 79.598999%)" offset="0.789062"/><stop stop-opacity="1" stop-color="rgb(17.793274%, 49.80011%, 79.598999%)" offset="0.792969"/><stop stop-opacity="1" stop-color="rgb(17.993164%, 49.798584%, 79.598999%)" offset="0.796875"/><stop stop-opacity="1" stop-color="rgb(17.999268%, 49.798584%, 79.414368%)" offset="0.800781"/><stop stop-opacity="1" stop-color="rgb(17.999268%, 49.61853%, 79.214478%)" offset="0.804688"/><stop stop-opacity="1" stop-color="rgb(18.173218%, 49.41864%, 79.199219%)" offset="0.808594"/><stop stop-opacity="1" stop-color="rgb(18.383789%, 49.388123%, 79.188538%)" offset="0.8125"/><stop stop-opacity="1" stop-color="rgb(18.608093%, 49.188232%, 78.988647%)" offset="0.816406"/><stop stop-opacity="1" stop-color="rgb(18.798828%, 48.997498%, 78.799438%)" offset="0.824219"/><stop stop-opacity="1" stop-color="rgb(18.798828%, 48.802185%, 78.799438%)" offset="0.832031"/><stop stop-opacity="1" stop-color="rgb(18.989563%, 48.602295%, 78.607178%)" offset="0.839844"/><stop stop-opacity="1" stop-color="rgb(19.189453%, 48.497009%, 78.407288%)" offset="0.847656"/><stop stop-opacity="1" stop-color="rgb(19.198608%, 48.297119%, 78.399658%)" offset="0.851562"/><stop stop-opacity="1" stop-color="rgb(19.303894%, 48.094177%, 78.294373%)" offset="0.859375"/><stop stop-opacity="1" stop-color="rgb(19.503784%, 47.894287%, 78.094482%)" offset="0.867188"/><stop stop-opacity="1" stop-color="rgb(19.784546%, 47.659302%, 77.999878%)" offset="0.882812"/><stop stop-opacity="1" stop-color="rgb(19.984436%, 47.509766%, 77.818298%)" offset="0.886719"/><stop stop-opacity="1" stop-color="rgb(19.999695%, 47.499084%, 77.616882%)" offset="0.890625"/><stop stop-opacity="1" stop-color="rgb(20.021057%, 47.476196%, 77.598572%)" offset="0.894531"/><stop stop-opacity="1" stop-color="rgb(20.220947%, 47.273254%, 77.449036%)" offset="0.898438"/><stop stop-opacity="1" stop-color="rgb(20.399475%, 46.896362%, 77.2995%)" offset="0.910156"/><stop stop-opacity="1" stop-color="rgb(20.593262%, 46.699524%, 77.2995%)" offset="0.917969"/><stop stop-opacity="1" stop-color="rgb(20.793152%, 46.508789%, 77.108765%)" offset="0.925781"/><stop stop-opacity="1" stop-color="rgb(20.799255%, 46.289062%, 76.908875%)" offset="0.933594"/><stop stop-opacity="1" stop-color="rgb(20.799255%, 46.078491%, 76.899719%)" offset="0.941406"/><stop stop-opacity="1" stop-color="rgb(20.809937%, 45.899963%, 76.899719%)" offset="0.945312"/><stop stop-opacity="1" stop-color="rgb(21.009827%, 45.892334%, 76.89209%)" offset="0.949219"/><stop stop-opacity="1" stop-color="rgb(21.199036%, 45.692444%, 76.6922%)" offset="0.953125"/><stop stop-opacity="1" stop-color="rgb(21.395874%, 45.498657%, 76.499939%)" offset="0.957031"/><stop stop-opacity="1" stop-color="rgb(21.594238%, 45.307922%, 76.499939%)" offset="0.964844"/><stop stop-opacity="1" stop-color="rgb(21.598816%, 45.108032%, 76.321411%)" offset="0.972656"/><stop stop-opacity="1" stop-color="rgb(21.798706%, 45.08667%, 76.119995%)" offset="0.976562"/><stop stop-opacity="1" stop-color="rgb(21.998596%, 44.88678%, 76.098633%)" offset="0.980469"/><stop stop-opacity="1" stop-color="rgb(21.998596%, 44.699097%, 76.094055%)" offset="0.988281"/><stop stop-opacity="1" stop-color="rgb(21.998596%, 44.699097%, 75.894165%)" offset="0.992188"/><stop stop-opacity="1" stop-color="rgb(21.998596%, 44.699097%, 75.698853%)" offset="1"/></radialGradient></defs><g fill="#ffffff" fill-opacity="1"><g transform="translate(39.769899, 282.272209)"><g><path d="M 19.328125 0.828125 C 29.109375 0.828125 35.125 -3.828125 35.125 -11.609375 C 35.125 -18.15625 30.828125 -22.046875 20.5625 -24.453125 C 14.265625 -25.9375 12.078125 -27.53125 12.078125 -30.0625 C 12.078125 -32.765625 14.5 -34.421875 18.453125 -34.421875 C 22.75 -34.421875 25.34375 -32.1875 25.34375 -28.46875 L 34.359375 -28.46875 C 34.359375 -36.78125 28.109375 -42.078125 18.328125 -42.078125 C 8.84375 -42.078125 2.953125 -37.421875 2.953125 -29.875 C 2.953125 -23.15625 7.484375 -19.15625 17.15625 -17.09375 C 22.984375 -15.859375 25.640625 -14.140625 25.640625 -11.25 C 25.640625 -8.484375 23.15625 -6.890625 19.265625 -6.890625 C 14.734375 -6.890625 11.78125 -9.1875 11.78125 -13.140625 L 2.59375 -13.140625 C 2.59375 -4.59375 8.953125 0.828125 19.328125 0.828125 Z M 19.328125 0.828125 "/></g></g></g><g fill="#ffffff" fill-opacity="1"><g transform="translate(76.956906, 282.272209)"><g><path d="M 4.484375 0 L 13.4375 0 L 13.4375 -11.78125 L 18.265625 -11.78125 L 25.109375 0 L 35.546875 0 L 26.640625 -14.796875 C 28.296875 -16.265625 29.59375 -18.328125 30.59375 -21.09375 L 34.1875 -30.9375 L 24.515625 -30.9375 L 22.34375 -24.21875 C 21.15625 -20.75 19.515625 -19.796875 15.734375 -19.796875 L 13.4375 -19.796875 L 13.4375 -43.609375 L 4.484375 -43.609375 Z M 4.484375 0 "/></g></g></g><g fill="#ffffff" fill-opacity="1"><g transform="translate(113.436703, 282.272209)"><g><path d="M 4.59375 11.78125 L 8.78125 11.78125 C 15.96875 11.78125 18.984375 10.015625 21.515625 3.65625 L 35.296875 -30.9375 L 25.703125 -30.9375 L 21.578125 -19.6875 L 18.734375 -11.78125 L 10.4375 -30.9375 L 0.53125 -30.9375 L 14.4375 -1 L 14.09375 0.0625 C 13.03125 3.125 11.78125 4.0625 8.140625 4.0625 L 4.59375 4.0625 Z M 4.59375 11.78125 "/></g></g></g><g fill="#ffffff" fill-opacity="1"><g transform="translate(149.224946, 282.272209)"><g><path d="M 14.5 0 L 19.328125 0 L 31.703125 -33.421875 L 38.546875 -15.03125 L 44.140625 0 L 48.984375 0 L 62.421875 -41.25 L 57 -41.25 L 46.390625 -8.25 L 34.1875 -41.25 L 29.296875 -41.25 L 17.09375 -8.3125 L 12.265625 -23.453125 L 6.546875 -41.25 L 1.125 -41.25 Z M 14.5 0 "/></g></g></g><g fill="#ffffff" fill-opacity="1"><g transform="translate(212.165965, 282.272209)"><g><path d="M 15.5 0.46875 C 20.453125 0.46875 24.34375 -1.125 27.109375 -4.25 L 27.640625 0 L 31.703125 0 L 31.703125 -19.453125 C 31.703125 -26.515625 26.34375 -31.359375 18.328125 -31.359375 C 11.671875 -31.359375 6.65625 -27.765625 5.296875 -21.859375 L 10.3125 -21.859375 C 11.3125 -24.875 14.4375 -26.75 18.390625 -26.75 C 23.578125 -26.75 26.75 -23.875 26.75 -19.09375 L 26.75 -17.96875 L 14.265625 -17.96875 C 7.890625 -17.96875 3.71875 -14.375 3.71875 -8.84375 C 3.71875 -3.0625 8.140625 0.46875 15.5 0.46875 Z M 8.65625 -8.90625 C 8.65625 -11.78125 11.015625 -13.609375 14.4375 -13.609375 L 26.8125 -13.609375 C 26.640625 -7.953125 22.046875 -3.953125 15.671875 -3.953125 C 11.375 -3.953125 8.65625 -5.890625 8.65625 -8.90625 Z M 8.65625 -8.90625 "/></g></g></g><g fill="#ffffff" fill-opacity="1"><g transform="translate(248.115362, 282.272209)"><g><path d="M 18.6875 0 L 23.28125 0 L 23.28125 -4.78125 L 18.921875 -4.78125 C 14.859375 -4.78125 12.96875 -6.84375 12.96875 -11.25 L 12.96875 -26.046875 L 22.875 -26.046875 L 22.875 -30.59375 L 12.96875 -30.59375 L 12.96875 -38.1875 L 9.140625 -38.1875 L 8.65625 -34.0625 C 8.3125 -31.296875 7.484375 -30.59375 4.65625 -30.59375 L 1.59375 -30.59375 L 1.59375 -26.046875 L 8.015625 -26.046875 L 8.015625 -11.015625 C 8.015625 -4 11.90625 0 18.6875 0 Z M 18.6875 0 "/></g></g></g><g fill="#ffffff" fill-opacity="1"><g transform="translate(273.692436, 282.272209)"><g><path d="M 18.796875 0.765625 C 26.46875 0.765625 32.421875 -3.828125 34.484375 -11.25 L 29.234375 -11.25 C 27.703125 -6.84375 23.75 -4 18.796875 -4 C 12.5 -4 8.015625 -8.65625 8.015625 -15.328125 C 8.015625 -21.921875 12.5 -26.640625 18.796875 -26.640625 C 23.453125 -26.640625 27.28125 -24.109375 29.109375 -19.859375 L 34.125 -19.859375 C 32.59375 -26.75 26.40625 -31.359375 18.796875 -31.359375 C 9.609375 -31.359375 3.0625 -24.640625 3.0625 -15.328125 C 3.0625 -5.953125 9.609375 0.765625 18.796875 0.765625 Z M 18.796875 0.765625 "/></g></g></g><g fill="#ffffff" fill-opacity="1"><g transform="translate(310.466901, 282.272209)"><g><path d="M 5.484375 0 L 10.4375 0 L 10.4375 -15.625 C 10.4375 -22.34375 14.5 -26.640625 20.28125 -26.640625 C 25.578125 -26.640625 28.875 -22.875 28.875 -16.734375 L 28.875 0 L 33.828125 0 L 33.828125 -17.203125 C 33.828125 -25.9375 29 -31.359375 20.921875 -31.359375 C 16.96875 -31.359375 13.078125 -29.875 10.4375 -26.578125 L 10.4375 -43.609375 L 5.484375 -43.609375 Z M 5.484375 0 "/></g></g></g><g clip-path="url(#23f165304f)"><g clip-path="url(#95e71ed506)"><g clip-path="url(#9ce08ae0c7)"><g clip-path="url(#f8f5f4ac1b)"><path fill="url(#10d12ac449)" d="M 371.15625 127.769531 L 163.105469 -39.335938 L 3.589844 159.265625 L 211.640625 326.371094 Z M 371.15625 127.769531 " fill-rule="nonzero"/></g></g></g></g><path fill="#ffffff" d="M 148.511719 185.851562 C 148.125 185.917969 147.734375 185.941406 147.34375 185.992188 C 147.140625 186.019531 146.976562 186.027344 146.816406 186.035156 L 146.320312 186.074219 L 146.195312 186.085938 L 146.136719 186.089844 L 146.039062 186.09375 L 145.660156 186.101562 L 144.890625 186.121094 L 144.304688 186.132812 L 143.566406 186.144531 C 142.765625 186.148438 141.960938 186.113281 141.160156 186.054688 C 134.746094 185.5625 128.398438 183.023438 123.171875 178.90625 C 120.5625 176.847656 118.234375 174.410156 116.304688 171.707031 C 114.359375 169.011719 112.792969 166.050781 111.726562 162.933594 C 111.191406 161.375 110.773438 159.785156 110.488281 158.167969 C 110.410156 157.765625 110.355469 157.359375 110.292969 156.953125 C 110.246094 156.554688 110.183594 156.113281 110.15625 155.777344 C 110.140625 155.589844 110.117188 155.457031 110.101562 155.167969 L 110.054688 154.503906 L 110.015625 153.246094 C 109.941406 149.894531 110.324219 146.542969 111.214844 143.304688 C 111.667969 141.691406 112.226562 140.101562 112.90625 138.554688 C 113.601562 137.019531 114.402344 135.527344 115.304688 134.09375 C 117.132812 131.242188 119.339844 128.59375 121.941406 126.363281 C 123.820312 124.710938 125.902344 123.292969 128.105469 122.089844 C 128.085938 122.09375 128.066406 122.101562 128.042969 122.105469 C 126.371094 122.582031 124.746094 123.1875 123.167969 123.886719 C 120.023438 125.304688 117.074219 127.148438 114.5 129.410156 C 111.894531 131.644531 109.6875 134.292969 107.859375 137.144531 C 106.957031 138.578125 106.15625 140.070312 105.460938 141.605469 C 104.78125 143.148438 104.222656 144.738281 103.769531 146.355469 C 102.878906 149.59375 102.496094 152.945312 102.570312 156.296875 L 102.609375 157.550781 L 102.65625 158.214844 C 102.671875 158.503906 102.691406 158.640625 102.710938 158.828125 C 102.742188 159.164062 102.800781 159.601562 102.847656 160.003906 C 102.910156 160.410156 102.964844 160.816406 103.042969 161.21875 C 103.328125 162.835938 103.746094 164.425781 104.28125 165.984375 C 105.347656 169.101562 106.914062 172.0625 108.855469 174.757812 C 110.789062 177.460938 113.117188 179.894531 115.726562 181.953125 C 120.949219 186.074219 127.300781 188.613281 133.710938 189.105469 C 134.515625 189.164062 135.320312 189.199219 136.121094 189.195312 L 136.863281 189.183594 L 137.449219 189.171875 L 138.210938 189.152344 L 138.597656 189.144531 L 138.6875 189.140625 L 138.753906 189.136719 L 138.875 189.125 L 139.371094 189.085938 C 139.535156 189.078125 139.691406 189.070312 139.902344 189.042969 C 140.289062 188.992188 140.679688 188.96875 141.066406 188.902344 C 141.84375 188.792969 142.621094 188.652344 143.394531 188.472656 C 146.3125 187.808594 149.199219 186.652344 152.027344 185.125 C 151.632812 185.230469 151.234375 185.332031 150.835938 185.421875 C 150.066406 185.601562 149.289062 185.742188 148.511719 185.851562 " fill-opacity="1" fill-rule="nonzero"/><path fill="#ffffff" d="M 279.761719 152.84375 L 279.761719 152.550781 C 279.761719 152.164062 279.757812 151.777344 279.738281 151.386719 C 279.726562 151 279.703125 150.609375 279.667969 150.21875 C 279.542969 148.660156 279.289062 147.09375 278.882812 145.558594 C 278.070312 142.484375 276.667969 139.519531 274.730469 136.914062 C 272.804688 134.304688 270.34375 132.050781 267.527344 130.363281 C 264.710938 128.679688 261.546875 127.527344 258.261719 127.039062 C 256.621094 126.785156 254.949219 126.710938 253.289062 126.78125 C 251.625 126.871094 249.96875 127.121094 248.355469 127.515625 C 246.214844 128.050781 244.152344 128.855469 242.222656 129.871094 C 242.609375 129.757812 242.996094 129.648438 243.390625 129.550781 C 245.003906 129.152344 246.660156 128.902344 248.320312 128.816406 C 249.984375 128.746094 251.65625 128.820312 253.292969 129.074219 C 256.578125 129.5625 259.742188 130.714844 262.558594 132.398438 C 265.378906 134.085938 267.835938 136.335938 269.765625 138.945312 C 271.699219 141.550781 273.105469 144.519531 273.917969 147.589844 C 274.324219 149.128906 274.578125 150.695312 274.703125 152.253906 C 274.734375 152.644531 274.761719 153.035156 274.773438 153.421875 C 274.792969 153.8125 274.792969 154.199219 274.792969 154.585938 L 274.792969 154.878906 L 274.796875 154.992188 L 274.792969 155.054688 L 274.789062 155.183594 L 274.773438 155.78125 C 274.75 156.121094 274.738281 156.4375 274.703125 156.867188 C 274.675781 157.28125 274.632812 157.652344 274.59375 158.035156 C 274.546875 158.414062 274.503906 158.792969 274.441406 159.171875 C 274.328125 159.929688 274.179688 160.679688 274.007812 161.425781 C 273.65625 162.910156 273.191406 164.363281 272.625 165.773438 C 271.488281 168.585938 269.945312 171.214844 268.046875 173.527344 C 266.152344 175.84375 263.929688 177.855469 261.476562 179.5 C 260.605469 180.078125 259.703125 180.609375 258.777344 181.089844 C 261.46875 180.265625 264.0625 179.046875 266.445312 177.464844 C 268.894531 175.820312 271.117188 173.808594 273.011719 171.492188 C 274.910156 169.179688 276.453125 166.550781 277.589844 163.738281 C 278.160156 162.332031 278.621094 160.875 278.972656 159.390625 C 279.148438 158.644531 279.292969 157.894531 279.40625 157.136719 C 279.46875 156.761719 279.511719 156.378906 279.5625 156 C 279.597656 155.617188 279.644531 155.246094 279.671875 154.832031 C 279.703125 154.402344 279.71875 154.089844 279.738281 153.746094 L 279.753906 153.148438 L 279.757812 153.019531 L 279.761719 152.957031 L 279.761719 152.84375 " fill-opacity="1" fill-rule="nonzero"/></svg>