<svg xmlns="http://www.w3.org/2000/svg" xmlns:xlink="http://www.w3.org/1999/xlink" width="500" zoomAndPan="magnify" viewBox="0 0 375 374.999991" height="500" preserveAspectRatio="xMidYMid meet" version="1.0"><defs><g/><clipPath id="63592f2bf2"><path d="M 83.191406 78.007812 L 291.804688 78.007812 L 291.804688 213.140625 L 83.191406 213.140625 Z M 83.191406 78.007812 " clip-rule="nonzero"/></clipPath><clipPath id="4ab9647ca4"><path d="M 291.804688 155.59375 L 291.804688 155.097656 C 291.804688 154.433594 291.800781 153.769531 291.765625 153.101562 C 291.746094 152.4375 291.703125 151.773438 291.648438 151.105469 C 291.4375 148.4375 291 145.765625 290.304688 143.136719 C 288.914062 137.882812 286.515625 132.808594 283.203125 128.355469 C 279.90625 123.890625 275.707031 120.042969 270.886719 117.15625 C 266.070312 114.277344 260.664062 112.304688 255.046875 111.472656 C 252.238281 111.039062 249.386719 110.914062 246.539062 111.03125 C 243.699219 111.179688 240.871094 111.609375 238.113281 112.289062 C 232.597656 113.664062 227.390625 116.070312 222.796875 119.203125 C 222.214844 119.585938 221.652344 119.988281 221.097656 120.402344 C 220.53125 120.808594 219.992188 121.238281 219.449219 121.664062 C 218.902344 122.085938 218.386719 122.539062 217.863281 122.980469 L 217.46875 123.316406 L 217.058594 123.6875 L 216.246094 124.429688 L 215.855469 124.796875 L 215.542969 125.101562 L 214.921875 125.710938 L 214.761719 125.863281 L 214.5 126.132812 L 214.152344 126.492188 L 213.46875 127.207031 C 212.578125 128.15625 211.710938 129.113281 210.886719 130.066406 C 207.582031 133.886719 204.667969 137.703125 201.808594 141.488281 C 198.960938 145.269531 196.199219 149.011719 193.46875 152.710938 C 187.992188 160.089844 182.460938 167.207031 176.511719 173.597656 C 173.554688 176.800781 170.488281 179.808594 167.300781 182.503906 C 164.113281 185.195312 160.8125 187.59375 157.40625 189.492188 C 154 191.390625 150.511719 192.8125 146.988281 193.617188 C 146.105469 193.820312 145.222656 193.980469 144.335938 194.109375 C 143.894531 194.183594 143.449219 194.210938 143.007812 194.269531 C 142.773438 194.300781 142.585938 194.308594 142.402344 194.320312 L 141.835938 194.363281 L 141.695312 194.375 L 141.625 194.382812 L 141.519531 194.382812 L 141.082031 194.394531 L 140.210938 194.414062 L 139.539062 194.429688 L 138.699219 194.441406 C 137.78125 194.445312 136.863281 194.40625 135.949219 194.339844 C 128.636719 193.777344 121.394531 190.882812 115.4375 186.183594 C 112.460938 183.835938 109.804688 181.058594 107.601562 177.972656 C 105.386719 174.902344 103.601562 171.527344 102.382812 167.972656 C 101.773438 166.195312 101.296875 164.378906 100.972656 162.535156 C 100.886719 162.074219 100.820312 161.609375 100.75 161.148438 C 100.695312 160.691406 100.625 160.191406 100.59375 159.808594 C 100.570312 159.59375 100.546875 159.441406 100.527344 159.109375 L 100.476562 158.355469 L 100.433594 156.921875 C 100.347656 153.101562 100.78125 149.273438 101.796875 145.582031 C 102.316406 143.742188 102.953125 141.925781 103.726562 140.167969 C 104.519531 138.414062 105.433594 136.714844 106.464844 135.074219 C 108.550781 131.824219 111.066406 128.804688 114.035156 126.261719 C 116.972656 123.679688 120.335938 121.578125 123.921875 119.960938 C 125.722656 119.160156 127.578125 118.472656 129.484375 117.925781 C 131.394531 117.40625 133.347656 117.011719 135.332031 116.742188 L 138.890625 116.257812 L 140.421875 113.6875 C 141.570312 111.753906 142.839844 109.894531 144.226562 108.113281 C 145.609375 106.328125 147.089844 104.613281 148.683594 102.996094 C 151.867188 99.761719 155.476562 96.910156 159.394531 94.53125 C 163.304688 92.128906 167.535156 90.203125 171.972656 88.832031 C 174.191406 88.152344 176.457031 87.589844 178.757812 87.164062 C 179.335938 87.066406 179.910156 86.960938 180.488281 86.875 L 182.230469 86.636719 L 183.925781 86.453125 L 185.8125 86.324219 L 187.523438 86.253906 L 189.292969 86.234375 C 190.476562 86.246094 191.664062 86.273438 192.847656 86.34375 C 195.21875 86.488281 197.585938 86.777344 199.9375 87.21875 C 204.632812 88.113281 209.277344 89.542969 213.695312 91.582031 C 215.902344 92.601562 218.074219 93.738281 220.164062 95.023438 C 222.257812 96.308594 224.277344 97.726562 226.226562 99.257812 C 228.175781 100.792969 230.03125 102.460938 231.804688 104.230469 C 233.566406 106.011719 235.242188 107.882812 236.8125 109.878906 C 235.625 107.648438 234.28125 105.46875 232.789062 103.394531 C 231.304688 101.3125 229.664062 99.328125 227.902344 97.441406 C 226.144531 95.554688 224.25 93.777344 222.238281 92.125 C 220.230469 90.472656 218.117188 88.925781 215.890625 87.535156 C 211.441406 84.761719 206.613281 82.492188 201.523438 80.921875 C 198.980469 80.128906 196.382812 79.496094 193.746094 79.023438 C 192.425781 78.789062 191.097656 78.589844 189.765625 78.445312 C 189.09375 78.378906 188.425781 78.304688 187.757812 78.253906 L 186.75 78.1875 L 186.246094 78.15625 L 185.867188 78.128906 L 185.742188 78.128906 L 185.679688 78.125 L 183.789062 78.058594 L 181.703125 78.054688 L 179.671875 78.113281 C 178.992188 78.144531 178.316406 78.199219 177.640625 78.238281 C 174.9375 78.441406 172.234375 78.816406 169.566406 79.382812 C 164.222656 80.503906 158.996094 82.300781 154.046875 84.738281 C 149.109375 87.195312 144.46875 90.285156 140.257812 93.914062 C 138.152344 95.730469 136.148438 97.675781 134.28125 99.753906 C 133.183594 100.980469 132.136719 102.253906 131.128906 103.558594 C 129.492188 103.746094 127.859375 103.992188 126.238281 104.320312 C 123.617188 104.871094 121.03125 105.621094 118.503906 106.542969 C 115.972656 107.46875 113.539062 108.640625 111.175781 109.941406 C 108.808594 111.238281 106.558594 112.746094 104.417969 114.398438 C 102.273438 116.050781 100.238281 117.855469 98.367188 119.824219 C 96.496094 121.789062 94.726562 123.867188 93.171875 126.105469 C 91.609375 128.34375 90.207031 130.691406 88.972656 133.132812 C 87.753906 135.585938 86.722656 138.132812 85.863281 140.742188 C 84.179688 145.964844 83.246094 151.457031 83.191406 156.949219 L 83.195312 159.011719 L 83.230469 160 C 83.234375 160.253906 83.265625 160.675781 83.285156 161.042969 C 83.332031 161.824219 83.398438 162.480469 83.464844 163.183594 C 83.542969 163.875 83.621094 164.566406 83.722656 165.253906 C 84.117188 168.015625 84.738281 170.738281 85.554688 173.398438 C 87.191406 178.714844 89.628906 183.757812 92.738281 188.324219 C 95.863281 192.886719 99.628906 196.984375 103.902344 200.488281 C 108.171875 203.996094 112.960938 206.898438 118.109375 209.0625 C 123.257812 211.226562 128.78125 212.589844 134.402344 213.078125 C 135.8125 213.195312 137.222656 213.269531 138.636719 213.277344 L 140.617188 213.261719 L 141.492188 213.242188 L 141.929688 213.234375 L 142.039062 213.230469 L 142.1875 213.222656 L 142.480469 213.207031 L 143.660156 213.136719 C 144.054688 213.113281 144.453125 213.085938 144.796875 213.046875 C 145.507812 212.964844 146.226562 212.910156 146.933594 212.796875 C 148.355469 212.601562 149.765625 212.347656 151.152344 212.03125 C 156.722656 210.78125 161.941406 208.628906 166.652344 205.964844 C 171.371094 203.300781 175.632812 200.175781 179.53125 196.824219 C 183.425781 193.46875 186.980469 189.894531 190.308594 186.222656 C 196.9375 178.851562 202.683594 171.09375 208.171875 163.417969 C 210.925781 159.585938 213.5625 155.734375 216.207031 151.992188 C 218.847656 148.257812 221.488281 144.585938 224.179688 141.277344 C 224.851562 140.445312 225.53125 139.65625 226.207031 138.882812 L 226.710938 138.320312 L 226.964844 138.042969 C 226.941406 138.0625 227.109375 137.890625 226.929688 138.074219 L 227.003906 137.996094 L 227.15625 137.839844 L 227.761719 137.207031 L 228.0625 136.894531 L 228.304688 136.65625 L 228.765625 136.203125 L 228.992188 135.972656 L 229.253906 135.730469 C 229.605469 135.410156 229.945312 135.074219 230.3125 134.769531 C 230.671875 134.460938 231.027344 134.144531 231.398438 133.855469 C 231.765625 133.554688 232.132812 133.265625 232.515625 132.988281 C 235.515625 130.730469 238.832031 129.035156 242.316406 127.984375 C 245.804688 126.960938 249.457031 126.566406 253.089844 126.894531 C 256.71875 127.210938 260.308594 128.28125 263.597656 129.984375 C 266.863281 131.71875 269.878906 134.039062 272.320312 136.917969 C 274.785156 139.773438 276.695312 143.152344 277.964844 146.820312 C 278.617188 148.652344 279.097656 150.5625 279.417969 152.523438 C 279.5 153.011719 279.574219 153.507812 279.628906 154.003906 C 279.695312 154.5 279.738281 155 279.78125 155.5 L 279.8125 155.875 C 279.8125 155.875 279.820312 156.003906 279.820312 155.898438 L 279.824219 156.007812 L 279.855469 156.664062 L 279.867188 156.882812 L 279.871094 156.992188 C 279.878906 156.734375 279.875 156.980469 279.878906 156.953125 C 279.890625 157.53125 279.910156 158.160156 279.910156 158.585938 C 279.921875 159.042969 279.902344 159.570312 279.894531 160.078125 C 279.867188 160.589844 279.855469 161.101562 279.8125 161.609375 C 279.746094 162.628906 279.628906 163.648438 279.484375 164.664062 C 279.207031 166.695312 278.765625 168.714844 278.175781 170.695312 C 275.8125 178.621094 271.015625 185.988281 264.429688 191.488281 C 261.15625 194.253906 257.445312 196.566406 253.433594 198.285156 C 249.429688 200.023438 245.128906 201.175781 240.699219 201.664062 C 236.277344 202.175781 231.722656 202.023438 227.234375 201.238281 C 222.753906 200.421875 218.332031 198.960938 214.144531 196.875 C 217.890625 199.671875 222.125 201.921875 226.65625 203.460938 C 231.191406 205.015625 236 205.832031 240.882812 205.96875 C 245.761719 206.066406 250.710938 205.425781 255.484375 204.027344 C 260.246094 202.617188 264.835938 200.480469 269.039062 197.6875 C 273.226562 194.882812 277.027344 191.4375 280.269531 187.480469 C 283.511719 183.523438 286.148438 179.03125 288.09375 174.222656 C 289.066406 171.8125 289.859375 169.324219 290.457031 166.785156 C 290.757812 165.511719 291.007812 164.226562 291.199219 162.933594 C 291.304688 162.289062 291.378906 161.640625 291.464844 160.988281 C 291.53125 160.335938 291.605469 159.699219 291.648438 158.996094 C 291.707031 158.257812 291.730469 157.722656 291.765625 157.136719 L 291.796875 156.113281 L 291.800781 155.894531 L 291.804688 155.785156 Z M 291.804688 155.59375 " clip-rule="nonzero"/></clipPath><clipPath id="e0b50d3dce"><path d="M 291.804688 155.59375 L 291.804688 155.097656 C 291.804688 154.433594 291.800781 153.769531 291.765625 153.101562 C 291.746094 152.4375 291.703125 151.773438 291.648438 151.105469 C 291.4375 148.4375 291 145.765625 290.304688 143.136719 C 288.914062 137.882812 286.515625 132.808594 283.203125 128.355469 C 279.90625 123.890625 275.707031 120.042969 270.886719 117.15625 C 266.070312 114.277344 260.664062 112.304688 255.046875 111.472656 C 252.238281 111.039062 249.386719 110.914062 246.539062 111.03125 C 243.699219 111.179688 240.871094 111.609375 238.113281 112.289062 C 232.597656 113.664062 227.390625 116.070312 222.796875 119.203125 C 222.214844 119.585938 221.652344 119.988281 221.097656 120.402344 C 220.53125 120.808594 219.992188 121.238281 219.449219 121.664062 C 218.902344 122.085938 218.386719 122.539062 217.863281 122.980469 L 217.46875 123.316406 L 217.058594 123.6875 L 216.246094 124.429688 L 215.855469 124.796875 L 215.542969 125.101562 L 214.921875 125.710938 L 214.761719 125.863281 L 214.5 126.132812 L 214.152344 126.492188 L 213.46875 127.207031 C 212.578125 128.15625 211.710938 129.113281 210.886719 130.066406 C 207.582031 133.886719 204.667969 137.703125 201.808594 141.488281 C 198.960938 145.269531 196.199219 149.011719 193.46875 152.710938 C 187.992188 160.089844 182.460938 167.207031 176.511719 173.597656 C 173.554688 176.800781 170.488281 179.808594 167.300781 182.503906 C 164.113281 185.195312 160.8125 187.59375 157.40625 189.492188 C 154 191.390625 150.511719 192.8125 146.988281 193.617188 C 146.105469 193.820312 145.222656 193.980469 144.335938 194.109375 C 143.894531 194.183594 143.449219 194.210938 143.007812 194.269531 C 142.773438 194.300781 142.585938 194.308594 142.402344 194.320312 L 141.835938 194.363281 L 141.695312 194.375 L 141.625 194.382812 L 141.519531 194.382812 L 141.082031 194.394531 L 140.210938 194.414062 L 139.539062 194.429688 L 138.699219 194.441406 C 137.78125 194.445312 136.863281 194.40625 135.949219 194.339844 C 128.636719 193.777344 121.394531 190.882812 115.4375 186.183594 C 112.460938 183.835938 109.804688 181.058594 107.601562 177.972656 C 105.386719 174.902344 103.601562 171.527344 102.382812 167.972656 C 101.773438 166.195312 101.296875 164.378906 100.972656 162.535156 C 100.886719 162.074219 100.820312 161.609375 100.75 161.148438 C 100.695312 160.691406 100.625 160.191406 100.59375 159.808594 C 100.570312 159.59375 100.546875 159.441406 100.527344 159.109375 L 100.476562 158.355469 L 100.433594 156.921875 C 100.347656 153.101562 100.78125 149.273438 101.796875 145.582031 C 102.316406 143.742188 102.953125 141.925781 103.726562 140.167969 C 104.519531 138.414062 105.433594 136.714844 106.464844 135.074219 C 108.550781 131.824219 111.066406 128.804688 114.035156 126.261719 C 116.972656 123.679688 120.335938 121.578125 123.921875 119.960938 C 125.722656 119.160156 127.578125 118.472656 129.484375 117.925781 C 131.394531 117.40625 133.347656 117.011719 135.332031 116.742188 L 138.890625 116.257812 L 140.421875 113.6875 C 141.570312 111.753906 142.839844 109.894531 144.226562 108.113281 C 145.609375 106.328125 147.089844 104.613281 148.683594 102.996094 C 151.867188 99.761719 155.476562 96.910156 159.394531 94.53125 C 163.304688 92.128906 167.535156 90.203125 171.972656 88.832031 C 174.191406 88.152344 176.457031 87.589844 178.757812 87.164062 C 179.335938 87.066406 179.910156 86.960938 180.488281 86.875 L 182.230469 86.636719 L 183.925781 86.453125 L 185.8125 86.324219 L 187.523438 86.253906 L 189.292969 86.234375 C 190.476562 86.246094 191.664062 86.273438 192.847656 86.34375 C 195.21875 86.488281 197.585938 86.777344 199.9375 87.21875 C 204.632812 88.113281 209.277344 89.542969 213.695312 91.582031 C 215.902344 92.601562 218.074219 93.738281 220.164062 95.023438 C 222.257812 96.308594 224.277344 97.726562 226.226562 99.257812 C 228.175781 100.792969 230.03125 102.460938 231.804688 104.230469 C 233.566406 106.011719 235.242188 107.882812 236.8125 109.878906 C 235.625 107.648438 234.28125 105.46875 232.789062 103.394531 C 231.304688 101.3125 229.664062 99.328125 227.902344 97.441406 C 226.144531 95.554688 224.25 93.777344 222.238281 92.125 C 220.230469 90.472656 218.117188 88.925781 215.890625 87.535156 C 211.441406 84.761719 206.613281 82.492188 201.523438 80.921875 C 198.980469 80.128906 196.382812 79.496094 193.746094 79.023438 C 192.425781 78.789062 191.097656 78.589844 189.765625 78.445312 C 189.09375 78.378906 188.425781 78.304688 187.757812 78.253906 L 186.75 78.1875 L 186.246094 78.15625 L 185.867188 78.128906 L 185.742188 78.128906 L 185.679688 78.125 L 183.789062 78.058594 L 181.703125 78.054688 L 179.671875 78.113281 C 178.992188 78.144531 178.316406 78.199219 177.640625 78.238281 C 174.9375 78.441406 172.234375 78.816406 169.566406 79.382812 C 164.222656 80.503906 158.996094 82.300781 154.046875 84.738281 C 149.109375 87.195312 144.46875 90.285156 140.257812 93.914062 C 138.152344 95.730469 136.148438 97.675781 134.28125 99.753906 C 133.183594 100.980469 132.136719 102.253906 131.128906 103.558594 C 129.492188 103.746094 127.859375 103.992188 126.238281 104.320312 C 123.617188 104.871094 121.03125 105.621094 118.503906 106.542969 C 115.972656 107.46875 113.539062 108.640625 111.175781 109.941406 C 108.808594 111.238281 106.558594 112.746094 104.417969 114.398438 C 102.273438 116.050781 100.238281 117.855469 98.367188 119.824219 C 96.496094 121.789062 94.726562 123.867188 93.171875 126.105469 C 91.609375 128.34375 90.207031 130.691406 88.972656 133.132812 C 87.753906 135.585938 86.722656 138.132812 85.863281 140.742188 C 84.179688 145.964844 83.246094 151.457031 83.191406 156.949219 L 83.195312 159.011719 L 83.230469 160 C 83.234375 160.253906 83.265625 160.675781 83.285156 161.042969 C 83.332031 161.824219 83.398438 162.480469 83.464844 163.183594 C 83.542969 163.875 83.621094 164.566406 83.722656 165.253906 C 84.117188 168.015625 84.738281 170.738281 85.554688 173.398438 C 87.191406 178.714844 89.628906 183.757812 92.738281 188.324219 C 95.863281 192.886719 99.628906 196.984375 103.902344 200.488281 C 108.171875 203.996094 112.960938 206.898438 118.109375 209.0625 C 123.257812 211.226562 128.78125 212.589844 134.402344 213.078125 C 135.8125 213.195312 137.222656 213.269531 138.636719 213.277344 L 140.617188 213.261719 L 141.492188 213.242188 L 141.929688 213.234375 L 142.039062 213.230469 L 142.1875 213.222656 L 142.480469 213.207031 L 143.660156 213.136719 C 144.054688 213.113281 144.453125 213.085938 144.796875 213.046875 C 145.507812 212.964844 146.226562 212.910156 146.933594 212.796875 C 148.355469 212.601562 149.765625 212.347656 151.152344 212.03125 C 156.722656 210.78125 161.941406 208.628906 166.652344 205.964844 C 171.371094 203.300781 175.632812 200.175781 179.53125 196.824219 C 183.425781 193.46875 186.980469 189.894531 190.308594 186.222656 C 196.9375 178.851562 202.683594 171.09375 208.171875 163.417969 C 210.925781 159.585938 213.5625 155.734375 216.207031 151.992188 C 218.847656 148.257812 221.488281 144.585938 224.179688 141.277344 C 224.851562 140.445312 225.53125 139.65625 226.207031 138.882812 L 226.710938 138.320312 L 226.964844 138.042969 C 226.941406 138.0625 227.109375 137.890625 226.929688 138.074219 L 227.003906 137.996094 L 227.15625 137.839844 L 227.761719 137.207031 L 228.0625 136.894531 L 228.304688 136.65625 L 228.765625 136.203125 L 228.992188 135.972656 L 229.253906 135.730469 C 229.605469 135.410156 229.945312 135.074219 230.3125 134.769531 C 230.671875 134.460938 231.027344 134.144531 231.398438 133.855469 C 231.765625 133.554688 232.132812 133.265625 232.515625 132.988281 C 235.515625 130.730469 238.832031 129.035156 242.316406 127.984375 C 245.804688 126.960938 249.457031 126.566406 253.089844 126.894531 C 256.71875 127.210938 260.308594 128.28125 263.597656 129.984375 C 266.863281 131.71875 269.878906 134.039062 272.320312 136.917969 C 274.785156 139.773438 276.695312 143.152344 277.964844 146.820312 C 278.617188 148.652344 279.097656 150.5625 279.417969 152.523438 C 279.5 153.011719 279.574219 153.507812 279.628906 154.003906 C 279.695312 154.5 279.738281 155 279.78125 155.5 L 279.8125 155.875 C 279.8125 155.875 279.820312 156.003906 279.820312 155.898438 L 279.824219 156.007812 L 279.855469 156.664062 L 279.867188 156.882812 L 279.871094 156.992188 C 279.878906 156.734375 279.875 156.980469 279.878906 156.953125 C 279.890625 157.53125 279.910156 158.160156 279.910156 158.585938 C 279.921875 159.042969 279.902344 159.570312 279.894531 160.078125 C 279.867188 160.589844 279.855469 161.101562 279.8125 161.609375 C 279.746094 162.628906 279.628906 163.648438 279.484375 164.664062 C 279.207031 166.695312 278.765625 168.714844 278.175781 170.695312 C 275.8125 178.621094 271.015625 185.988281 264.429688 191.488281 C 261.15625 194.253906 257.445312 196.566406 253.433594 198.285156 C 249.429688 200.023438 245.128906 201.175781 240.699219 201.664062 C 236.277344 202.175781 231.722656 202.023438 227.234375 201.238281 C 222.753906 200.421875 218.332031 198.960938 214.144531 196.875 C 217.890625 199.671875 222.125 201.921875 226.65625 203.460938 C 231.191406 205.015625 236 205.832031 240.882812 205.96875 C 245.761719 206.066406 250.710938 205.425781 255.484375 204.027344 C 260.246094 202.617188 264.835938 200.480469 269.039062 197.6875 C 273.226562 194.882812 277.027344 191.4375 280.269531 187.480469 C 283.511719 183.523438 286.148438 179.03125 288.09375 174.222656 C 289.066406 171.8125 289.859375 169.324219 290.457031 166.785156 C 290.757812 165.511719 291.007812 164.226562 291.199219 162.933594 C 291.304688 162.289062 291.378906 161.640625 291.464844 160.988281 C 291.53125 160.335938 291.605469 159.699219 291.648438 158.996094 C 291.707031 158.257812 291.730469 157.722656 291.765625 157.136719 L 291.796875 156.113281 L 291.800781 155.894531 L 291.804688 155.785156 L 291.804688 155.59375 " clip-rule="nonzero"/></clipPath><clipPath id="3bc506a675"><path d="M 357.824219 131.082031 L 164.996094 -23.796875 L 17.171875 160.25 L 210 315.128906 Z M 357.824219 131.082031 " clip-rule="nonzero"/></clipPath><radialGradient gradientTransform="matrix(-0.626209, 0.779655, -0.779655, -0.626209, 239.376419, 63.943058)" gradientUnits="userSpaceOnUse" r="148.965937" cx="0" id="54d8691f83" cy="0" fx="0" fy="0"><stop stop-opacity="1" stop-color="rgb(0.193787%, 67.799377%, 93.699646%)" offset="0"/><stop stop-opacity="1" stop-color="rgb(0.393677%, 67.658997%, 93.513489%)" offset="0.0078125"/><stop stop-opacity="1" stop-color="rgb(0.39978%, 67.50946%, 93.313599%)" offset="0.0117188"/><stop stop-opacity="1" stop-color="rgb(0.39978%, 67.498779%, 93.299866%)" offset="0.015625"/><stop stop-opacity="1" stop-color="rgb(0.59967%, 67.498779%, 93.299866%)" offset="0.0195312"/><stop stop-opacity="1" stop-color="rgb(0.799561%, 67.481995%, 93.299866%)" offset="0.0234375"/><stop stop-opacity="1" stop-color="rgb(0.799561%, 67.282104%, 93.286133%)" offset="0.0273438"/><stop stop-opacity="1" stop-color="rgb(0.80719%, 67.098999%, 93.086243%)" offset="0.03125"/><stop stop-opacity="1" stop-color="rgb(1.00708%, 67.098999%, 92.89856%)" offset="0.0351562"/><stop stop-opacity="1" stop-color="rgb(1.199341%, 66.90979%, 92.89856%)" offset="0.046875"/><stop stop-opacity="1" stop-color="rgb(1.199341%, 66.7099%, 92.89856%)" offset="0.0507812"/><stop stop-opacity="1" stop-color="rgb(1.199341%, 66.699219%, 92.718506%)" offset="0.0546875"/><stop stop-opacity="1" stop-color="rgb(1.373291%, 66.699219%, 92.518616%)" offset="0.0585938"/><stop stop-opacity="1" stop-color="rgb(1.573181%, 66.677856%, 92.498779%)" offset="0.0625"/><stop stop-opacity="1" stop-color="rgb(1.61438%, 66.477966%, 92.498779%)" offset="0.0664062"/><stop stop-opacity="1" stop-color="rgb(1.81427%, 66.299438%, 92.349243%)" offset="0.0703125"/><stop stop-opacity="1" stop-color="rgb(1.998901%, 66.299438%, 92.199707%)" offset="0.0820312"/><stop stop-opacity="1" stop-color="rgb(2.191162%, 66.107178%, 92.199707%)" offset="0.0859375"/><stop stop-opacity="1" stop-color="rgb(2.391052%, 65.907288%, 92.021179%)" offset="0.0898438"/><stop stop-opacity="1" stop-color="rgb(2.415466%, 65.875244%, 91.821289%)" offset="0.101562"/><stop stop-opacity="1" stop-color="rgb(2.566528%, 65.675354%, 91.799927%)" offset="0.105469"/><stop stop-opacity="1" stop-color="rgb(2.703857%, 65.499878%, 91.793823%)" offset="0.117188"/><stop stop-opacity="1" stop-color="rgb(2.903748%, 65.499878%, 91.593933%)" offset="0.121094"/><stop stop-opacity="1" stop-color="rgb(3.09906%, 65.304565%, 91.398621%)" offset="0.125"/><stop stop-opacity="1" stop-color="rgb(3.09906%, 65.103149%, 91.398621%)" offset="0.128906"/><stop stop-opacity="1" stop-color="rgb(3.09906%, 65.098572%, 91.398621%)" offset="0.140625"/><stop stop-opacity="1" stop-color="rgb(3.29895%, 64.898682%, 91.19873%)" offset="0.144531"/><stop stop-opacity="1" stop-color="rgb(3.49884%, 64.698792%, 90.99884%)" offset="0.148438"/><stop stop-opacity="1" stop-color="rgb(3.511047%, 64.698792%, 90.99884%)" offset="0.152344"/><stop stop-opacity="1" stop-color="rgb(3.710938%, 64.698792%, 90.99884%)" offset="0.15625"/><stop stop-opacity="1" stop-color="rgb(3.898621%, 64.69574%, 90.99884%)" offset="0.160156"/><stop stop-opacity="1" stop-color="rgb(3.898621%, 64.497375%, 90.99884%)" offset="0.164062"/><stop stop-opacity="1" stop-color="rgb(4.092407%, 64.300537%, 90.805054%)" offset="0.167969"/><stop stop-opacity="1" stop-color="rgb(4.292297%, 64.299011%, 90.605164%)" offset="0.171875"/><stop stop-opacity="1" stop-color="rgb(4.299927%, 64.123535%, 90.59906%)" offset="0.183594"/><stop stop-opacity="1" stop-color="rgb(4.319763%, 63.923645%, 90.577698%)" offset="0.1875"/><stop stop-opacity="1" stop-color="rgb(4.525757%, 63.893127%, 90.377808%)" offset="0.191406"/><stop stop-opacity="1" stop-color="rgb(4.905701%, 63.693237%, 90.19928%)" offset="0.203125"/><stop stop-opacity="1" stop-color="rgb(5.28717%, 63.499451%, 90.011597%)" offset="0.214844"/><stop stop-opacity="1" stop-color="rgb(5.487061%, 63.499451%, 89.811707%)" offset="0.21875"/><stop stop-opacity="1" stop-color="rgb(5.499268%, 63.320923%, 89.7995%)" offset="0.222656"/><stop stop-opacity="1" stop-color="rgb(5.499268%, 63.121033%, 89.7995%)" offset="0.226562"/><stop stop-opacity="1" stop-color="rgb(5.499268%, 63.09967%, 89.779663%)" offset="0.230469"/><stop stop-opacity="1" stop-color="rgb(5.513%, 63.084412%, 89.579773%)" offset="0.234375"/><stop stop-opacity="1" stop-color="rgb(5.712891%, 62.884521%, 89.399719%)" offset="0.238281"/><stop stop-opacity="1" stop-color="rgb(6.09436%, 62.69989%, 89.399719%)" offset="0.25"/><stop stop-opacity="1" stop-color="rgb(6.29425%, 62.554932%, 89.205933%)" offset="0.253906"/><stop stop-opacity="1" stop-color="rgb(6.298828%, 62.40387%, 89.006042%)" offset="0.261719"/><stop stop-opacity="1" stop-color="rgb(6.396484%, 62.30011%, 88.999939%)" offset="0.269531"/><stop stop-opacity="1" stop-color="rgb(6.596375%, 62.10022%, 88.893127%)" offset="0.273438"/><stop stop-opacity="1" stop-color="rgb(6.800842%, 61.999512%, 88.691711%)" offset="0.28125"/><stop stop-opacity="1" stop-color="rgb(7.000732%, 61.901855%, 88.598633%)" offset="0.289062"/><stop stop-opacity="1" stop-color="rgb(7.191467%, 61.701965%, 88.50708%)" offset="0.296875"/><stop stop-opacity="1" stop-color="rgb(7.391357%, 61.499023%, 88.30719%)" offset="0.304688"/><stop stop-opacity="1" stop-color="rgb(7.580566%, 61.299133%, 88.198853%)" offset="0.3125"/><stop stop-opacity="1" stop-color="rgb(7.730103%, 61.199951%, 88.095093%)" offset="0.320312"/><stop stop-opacity="1" stop-color="rgb(7.798767%, 61.196899%, 87.895203%)" offset="0.328125"/><stop stop-opacity="1" stop-color="rgb(7.798767%, 61.000061%, 87.799072%)" offset="0.332031"/><stop stop-opacity="1" stop-color="rgb(7.798767%, 60.614014%, 87.658691%)" offset="0.335938"/><stop stop-opacity="1" stop-color="rgb(7.981873%, 60.411072%, 87.509155%)" offset="0.34375"/><stop stop-opacity="1" stop-color="rgb(8.280945%, 60.299683%, 87.5%)" offset="0.347656"/><stop stop-opacity="1" stop-color="rgb(8.49762%, 60.099792%, 87.391663%)" offset="0.355469"/><stop stop-opacity="1" stop-color="rgb(8.702087%, 59.999084%, 87.191772%)" offset="0.363281"/><stop stop-opacity="1" stop-color="rgb(8.901978%, 59.901428%, 87.098694%)" offset="0.371094"/><stop stop-opacity="1" stop-color="rgb(8.999634%, 59.701538%, 87.005615%)" offset="0.378906"/><stop stop-opacity="1" stop-color="rgb(9.100342%, 59.498596%, 86.805725%)" offset="0.386719"/><stop stop-opacity="1" stop-color="rgb(9.300232%, 59.298706%, 86.698914%)" offset="0.394531"/><stop stop-opacity="1" stop-color="rgb(9.503174%, 59.095764%, 86.595154%)" offset="0.402344"/><stop stop-opacity="1" stop-color="rgb(9.703064%, 58.80127%, 86.300659%)" offset="0.410156"/><stop stop-opacity="1" stop-color="rgb(9.889221%, 58.505249%, 86.004639%)" offset="0.425781"/><stop stop-opacity="1" stop-color="rgb(10.076904%, 58.399963%, 85.899353%)" offset="0.433594"/><stop stop-opacity="1" stop-color="rgb(10.284424%, 58.399963%, 85.899353%)" offset="0.4375"/><stop stop-opacity="1" stop-color="rgb(10.496521%, 58.293152%, 85.794067%)" offset="0.441406"/><stop stop-opacity="1" stop-color="rgb(10.699463%, 58.093262%, 85.594177%)" offset="0.449219"/><stop stop-opacity="1" stop-color="rgb(10.899353%, 57.902527%, 85.499573%)" offset="0.457031"/><stop stop-opacity="1" stop-color="rgb(10.998535%, 57.702637%, 85.40802%)" offset="0.464844"/><stop stop-opacity="1" stop-color="rgb(11.097717%, 57.524109%, 85.20813%)" offset="0.472656"/><stop stop-opacity="1" stop-color="rgb(11.297607%, 57.272339%, 84.996033%)" offset="0.480469"/><stop stop-opacity="1" stop-color="rgb(11.497498%, 56.996155%, 84.796143%)" offset="0.496094"/><stop stop-opacity="1" stop-color="rgb(11.697388%, 56.716919%, 84.698486%)" offset="0.503906"/><stop stop-opacity="1" stop-color="rgb(11.975098%, 56.517029%, 84.521484%)" offset="0.515625"/><stop stop-opacity="1" stop-color="rgb(12.184143%, 56.486511%, 84.321594%)" offset="0.519531"/><stop stop-opacity="1" stop-color="rgb(12.358093%, 56.286621%, 84.298706%)" offset="0.53125"/><stop stop-opacity="1" stop-color="rgb(12.5%, 56.098938%, 84.295654%)" offset="0.535156"/><stop stop-opacity="1" stop-color="rgb(12.5%, 56.098938%, 84.09729%)" offset="0.539062"/><stop stop-opacity="1" stop-color="rgb(12.5%, 56.098938%, 83.900452%)" offset="0.542969"/><stop stop-opacity="1" stop-color="rgb(12.5%, 55.909729%, 83.898926%)" offset="0.546875"/><stop stop-opacity="1" stop-color="rgb(12.5%, 55.709839%, 83.898926%)" offset="0.550781"/><stop stop-opacity="1" stop-color="rgb(12.678528%, 55.699158%, 83.898926%)" offset="0.554688"/><stop stop-opacity="1" stop-color="rgb(12.878418%, 55.699158%, 83.898926%)" offset="0.558594"/><stop stop-opacity="1" stop-color="rgb(12.919617%, 55.677795%, 83.699036%)" offset="0.5625"/><stop stop-opacity="1" stop-color="rgb(13.119507%, 55.471802%, 83.499146%)" offset="0.566406"/><stop stop-opacity="1" stop-color="rgb(13.299561%, 55.093384%, 83.49762%)" offset="0.578125"/><stop stop-opacity="1" stop-color="rgb(13.299561%, 54.899597%, 83.300781%)" offset="0.582031"/><stop stop-opacity="1" stop-color="rgb(13.299561%, 54.899597%, 83.102417%)" offset="0.585938"/><stop stop-opacity="1" stop-color="rgb(13.487244%, 54.899597%, 83.099365%)" offset="0.589844"/><stop stop-opacity="1" stop-color="rgb(13.687134%, 54.899597%, 83.099365%)" offset="0.59375"/><stop stop-opacity="1" stop-color="rgb(13.699341%, 54.721069%, 83.099365%)" offset="0.597656"/><stop stop-opacity="1" stop-color="rgb(13.722229%, 54.521179%, 83.074951%)" offset="0.601562"/><stop stop-opacity="1" stop-color="rgb(13.922119%, 54.499817%, 82.875061%)" offset="0.605469"/><stop stop-opacity="1" stop-color="rgb(14.099121%, 54.484558%, 82.699585%)" offset="0.609375"/><stop stop-opacity="1" stop-color="rgb(14.099121%, 54.284668%, 82.699585%)" offset="0.613281"/><stop stop-opacity="1" stop-color="rgb(14.103699%, 54.098511%, 82.699585%)" offset="0.617188"/><stop stop-opacity="1" stop-color="rgb(14.303589%, 54.003906%, 82.548523%)" offset="0.621094"/><stop stop-opacity="1" stop-color="rgb(14.588928%, 53.804016%, 82.398987%)" offset="0.632812"/><stop stop-opacity="1" stop-color="rgb(14.788818%, 53.601074%, 82.299805%)" offset="0.640625"/><stop stop-opacity="1" stop-color="rgb(15.005493%, 53.401184%, 82.099915%)" offset="0.648438"/><stop stop-opacity="1" stop-color="rgb(15.205383%, 53.196716%, 81.999207%)" offset="0.65625"/><stop stop-opacity="1" stop-color="rgb(15.299988%, 52.996826%, 81.90155%)" offset="0.664062"/><stop stop-opacity="1" stop-color="rgb(15.391541%, 52.806091%, 81.70166%)" offset="0.671875"/><stop stop-opacity="1" stop-color="rgb(15.591431%, 52.606201%, 81.599426%)" offset="0.679688"/><stop stop-opacity="1" stop-color="rgb(15.80658%, 52.418518%, 81.491089%)" offset="0.6875"/><stop stop-opacity="1" stop-color="rgb(16.00647%, 52.1698%, 81.193542%)" offset="0.695312"/><stop stop-opacity="1" stop-color="rgb(16.192627%, 51.899719%, 80.900574%)" offset="0.710938"/><stop stop-opacity="1" stop-color="rgb(16.392517%, 51.696777%, 80.799866%)" offset="0.71875"/><stop stop-opacity="1" stop-color="rgb(16.607666%, 51.496887%, 80.690002%)" offset="0.726562"/><stop stop-opacity="1" stop-color="rgb(16.807556%, 51.293945%, 80.488586%)" offset="0.734375"/><stop stop-opacity="1" stop-color="rgb(16.998291%, 51.094055%, 80.39856%)" offset="0.742188"/><stop stop-opacity="1" stop-color="rgb(17.198181%, 50.999451%, 80.39856%)" offset="0.75"/><stop stop-opacity="1" stop-color="rgb(17.298889%, 50.813293%, 80.212402%)" offset="0.757812"/><stop stop-opacity="1" stop-color="rgb(17.448425%, 50.590515%, 80.012512%)" offset="0.761719"/><stop stop-opacity="1" stop-color="rgb(17.599487%, 50.376892%, 79.998779%)" offset="0.773438"/><stop stop-opacity="1" stop-color="rgb(17.599487%, 50.19989%, 79.986572%)" offset="0.777344"/><stop stop-opacity="1" stop-color="rgb(17.599487%, 50.19989%, 79.786682%)" offset="0.78125"/><stop stop-opacity="1" stop-color="rgb(17.599487%, 50.195312%, 79.598999%)" offset="0.785156"/><stop stop-opacity="1" stop-color="rgb(17.599487%, 49.996948%, 79.598999%)" offset="0.789062"/><stop stop-opacity="1" stop-color="rgb(17.793274%, 49.80011%, 79.598999%)" offset="0.792969"/><stop stop-opacity="1" stop-color="rgb(17.993164%, 49.798584%, 79.598999%)" offset="0.796875"/><stop stop-opacity="1" stop-color="rgb(17.999268%, 49.798584%, 79.414368%)" offset="0.800781"/><stop stop-opacity="1" stop-color="rgb(17.999268%, 49.61853%, 79.214478%)" offset="0.804688"/><stop stop-opacity="1" stop-color="rgb(18.173218%, 49.41864%, 79.199219%)" offset="0.808594"/><stop stop-opacity="1" stop-color="rgb(18.383789%, 49.388123%, 79.188538%)" offset="0.8125"/><stop stop-opacity="1" stop-color="rgb(18.608093%, 49.188232%, 78.988647%)" offset="0.816406"/><stop stop-opacity="1" stop-color="rgb(18.798828%, 48.997498%, 78.799438%)" offset="0.824219"/><stop stop-opacity="1" stop-color="rgb(18.798828%, 48.802185%, 78.799438%)" offset="0.832031"/><stop stop-opacity="1" stop-color="rgb(18.989563%, 48.602295%, 78.607178%)" offset="0.839844"/><stop stop-opacity="1" stop-color="rgb(19.189453%, 48.497009%, 78.407288%)" offset="0.847656"/><stop stop-opacity="1" stop-color="rgb(19.198608%, 48.297119%, 78.399658%)" offset="0.851562"/><stop stop-opacity="1" stop-color="rgb(19.303894%, 48.094177%, 78.294373%)" offset="0.859375"/><stop stop-opacity="1" stop-color="rgb(19.503784%, 47.894287%, 78.094482%)" offset="0.867188"/><stop stop-opacity="1" stop-color="rgb(19.784546%, 47.659302%, 77.999878%)" offset="0.882812"/><stop stop-opacity="1" stop-color="rgb(19.984436%, 47.509766%, 77.818298%)" offset="0.886719"/><stop stop-opacity="1" stop-color="rgb(19.999695%, 47.499084%, 77.616882%)" offset="0.890625"/><stop stop-opacity="1" stop-color="rgb(20.021057%, 47.476196%, 77.598572%)" offset="0.894531"/><stop stop-opacity="1" stop-color="rgb(20.220947%, 47.273254%, 77.449036%)" offset="0.898438"/><stop stop-opacity="1" stop-color="rgb(20.399475%, 46.896362%, 77.2995%)" offset="0.910156"/><stop stop-opacity="1" stop-color="rgb(20.593262%, 46.699524%, 77.2995%)" offset="0.917969"/><stop stop-opacity="1" stop-color="rgb(20.793152%, 46.508789%, 77.108765%)" offset="0.925781"/><stop stop-opacity="1" stop-color="rgb(20.799255%, 46.289062%, 76.908875%)" offset="0.933594"/><stop stop-opacity="1" stop-color="rgb(20.799255%, 46.078491%, 76.899719%)" offset="0.941406"/><stop stop-opacity="1" stop-color="rgb(20.809937%, 45.899963%, 76.899719%)" offset="0.945312"/><stop stop-opacity="1" stop-color="rgb(21.009827%, 45.892334%, 76.89209%)" offset="0.949219"/><stop stop-opacity="1" stop-color="rgb(21.199036%, 45.692444%, 76.6922%)" offset="0.953125"/><stop stop-opacity="1" stop-color="rgb(21.395874%, 45.498657%, 76.499939%)" offset="0.957031"/><stop stop-opacity="1" stop-color="rgb(21.594238%, 45.307922%, 76.499939%)" offset="0.964844"/><stop stop-opacity="1" stop-color="rgb(21.598816%, 45.108032%, 76.321411%)" offset="0.972656"/><stop stop-opacity="1" stop-color="rgb(21.798706%, 45.08667%, 76.119995%)" offset="0.976562"/><stop stop-opacity="1" stop-color="rgb(21.998596%, 44.88678%, 76.098633%)" offset="0.980469"/><stop stop-opacity="1" stop-color="rgb(21.998596%, 44.699097%, 76.094055%)" offset="0.988281"/><stop stop-opacity="1" stop-color="rgb(21.998596%, 44.699097%, 75.894165%)" offset="0.992188"/><stop stop-opacity="1" stop-color="rgb(21.998596%, 44.699097%, 75.698853%)" offset="1"/></radialGradient></defs><rect x="-37.5" width="450" fill="#ffffff" y="-37.499999" height="449.999989" fill-opacity="1"/><rect x="-37.5" width="450" fill="#ffffff" y="-37.499999" height="449.999989" fill-opacity="1"/><g clip-path="url(#63592f2bf2)"><g clip-path="url(#4ab9647ca4)"><g clip-path="url(#e0b50d3dce)"><g clip-path="url(#3bc506a675)"><path fill="url(#54d8691f83)" d="M 357.757812 131.027344 L 164.996094 -23.796875 L 17.238281 160.167969 L 210 314.992188 Z M 357.757812 131.027344 " fill-rule="nonzero"/></g></g></g></g><path fill="#0554bd" d="M 151.394531 184.875 C 151.035156 184.9375 150.671875 184.957031 150.3125 185.003906 C 150.121094 185.03125 149.972656 185.035156 149.820312 185.046875 L 149.363281 185.082031 L 149.25 185.089844 L 149.191406 185.097656 L 149.105469 185.097656 L 148.039062 185.121094 L 147.496094 185.136719 L 146.8125 185.144531 C 146.070312 185.148438 145.324219 185.117188 144.582031 185.0625 C 138.640625 184.605469 132.761719 182.253906 127.925781 178.441406 C 125.507812 176.535156 123.351562 174.277344 121.5625 171.773438 C 119.761719 169.277344 118.3125 166.535156 117.324219 163.648438 C 116.828125 162.207031 116.441406 160.730469 116.175781 159.234375 C 116.105469 158.859375 116.054688 158.484375 115.996094 158.109375 C 115.949219 157.738281 115.894531 157.332031 115.871094 157.023438 C 115.851562 156.847656 115.832031 156.722656 115.816406 156.457031 L 115.773438 155.839844 L 115.738281 154.675781 C 115.667969 151.574219 116.023438 148.46875 116.847656 145.46875 C 117.269531 143.972656 117.785156 142.5 118.414062 141.070312 C 119.058594 139.648438 119.800781 138.265625 120.636719 136.9375 C 122.332031 134.296875 124.375 131.84375 126.785156 129.777344 C 128.523438 128.25 130.449219 126.933594 132.496094 125.820312 C 132.476562 125.824219 132.457031 125.832031 132.4375 125.835938 C 130.886719 126.277344 129.382812 126.835938 127.917969 127.484375 C 125.007812 128.800781 122.277344 130.507812 119.890625 132.601562 C 117.480469 134.667969 115.433594 137.121094 113.742188 139.761719 C 112.90625 141.089844 112.164062 142.472656 111.519531 143.894531 C 110.890625 145.324219 110.375 146.796875 109.953125 148.292969 C 109.128906 151.292969 108.773438 154.398438 108.84375 157.5 L 108.878906 158.664062 L 108.921875 159.277344 C 108.9375 159.546875 108.957031 159.671875 108.972656 159.847656 C 109 160.15625 109.054688 160.5625 109.101562 160.933594 C 109.15625 161.308594 109.210938 161.6875 109.28125 162.058594 C 109.546875 163.554688 109.933594 165.03125 110.425781 166.476562 C 111.417969 169.363281 112.867188 172.101562 114.664062 174.597656 C 116.453125 177.101562 118.609375 179.359375 121.027344 181.265625 C 125.867188 185.082031 131.746094 187.429688 137.6875 187.886719 C 138.429688 187.941406 139.175781 187.972656 139.917969 187.96875 L 140.601562 187.960938 L 141.144531 187.949219 L 141.851562 187.929688 L 142.207031 187.921875 L 142.296875 187.921875 L 142.351562 187.914062 L 142.464844 187.90625 L 142.925781 187.871094 C 143.078125 187.863281 143.226562 187.855469 143.417969 187.828125 C 143.777344 187.78125 144.140625 187.761719 144.496094 187.699219 C 145.214844 187.597656 145.933594 187.46875 146.652344 187.300781 C 149.355469 186.683594 152.03125 185.617188 154.648438 184.199219 C 154.28125 184.300781 153.914062 184.394531 153.546875 184.476562 C 152.832031 184.640625 152.113281 184.773438 151.394531 184.875 " fill-opacity="1" fill-rule="nonzero"/><path fill="#0554bd" d="M 272.949219 154.304688 L 272.949219 154.035156 C 272.949219 153.675781 272.949219 153.316406 272.929688 152.953125 C 272.917969 152.59375 272.894531 152.234375 272.863281 151.871094 C 272.75 150.429688 272.511719 148.980469 272.136719 147.554688 C 271.382812 144.707031 270.085938 141.960938 268.289062 139.550781 C 266.503906 137.132812 264.230469 135.046875 261.621094 133.484375 C 259.007812 131.925781 256.082031 130.855469 253.039062 130.40625 C 251.519531 130.167969 249.972656 130.101562 248.429688 130.167969 C 246.890625 130.246094 245.359375 130.480469 243.863281 130.847656 C 241.882812 131.339844 239.972656 132.089844 238.183594 133.027344 C 238.542969 132.921875 238.902344 132.820312 239.265625 132.730469 C 240.761719 132.363281 242.292969 132.132812 243.832031 132.050781 C 245.371094 131.984375 246.917969 132.054688 248.4375 132.289062 C 251.480469 132.738281 254.410156 133.808594 257.019531 135.367188 C 259.628906 136.933594 261.90625 139.015625 263.691406 141.433594 C 265.484375 143.847656 266.785156 146.59375 267.539062 149.4375 C 267.914062 150.863281 268.152344 152.3125 268.265625 153.757812 C 268.296875 154.117188 268.320312 154.480469 268.328125 154.839844 C 268.347656 155.199219 268.347656 155.558594 268.347656 155.917969 L 268.347656 156.1875 L 268.351562 156.292969 L 268.347656 156.351562 L 268.34375 156.46875 L 268.328125 157.023438 C 268.308594 157.339844 268.296875 157.628906 268.265625 158.03125 C 268.242188 158.414062 268.203125 158.757812 268.164062 159.109375 C 268.121094 159.464844 268.082031 159.816406 268.023438 160.164062 C 267.917969 160.863281 267.78125 161.5625 267.621094 162.25 C 267.296875 163.628906 266.867188 164.972656 266.339844 166.277344 C 265.285156 168.882812 263.859375 171.316406 262.101562 173.460938 C 260.34375 175.605469 258.285156 177.46875 256.015625 178.992188 C 255.207031 179.527344 254.371094 180.019531 253.515625 180.464844 C 256.007812 179.699219 258.410156 178.570312 260.617188 177.105469 C 262.886719 175.585938 264.945312 173.71875 266.699219 171.578125 C 268.457031 169.433594 269.886719 167 270.941406 164.394531 C 271.464844 163.089844 271.894531 161.742188 272.222656 160.367188 C 272.382812 159.675781 272.515625 158.980469 272.621094 158.28125 C 272.679688 157.929688 272.71875 157.578125 272.765625 157.226562 C 272.800781 156.871094 272.839844 156.527344 272.867188 156.148438 C 272.898438 155.746094 272.910156 155.457031 272.929688 155.136719 L 272.945312 154.585938 L 272.949219 154.46875 L 272.949219 154.304688 " fill-opacity="1" fill-rule="nonzero"/><g fill="#0554bd" fill-opacity="1"><g transform="translate(39.775334, 282.107229)"><g><path d="M 19.328125 0.828125 C 29.109375 0.828125 35.125 -3.828125 35.125 -11.609375 C 35.125 -18.15625 30.828125 -22.046875 20.5625 -24.453125 C 14.265625 -25.9375 12.078125 -27.53125 12.078125 -30.0625 C 12.078125 -32.765625 14.5 -34.421875 18.453125 -34.421875 C 22.75 -34.421875 25.34375 -32.1875 25.34375 -28.46875 L 34.359375 -28.46875 C 34.359375 -36.78125 28.109375 -42.078125 18.328125 -42.078125 C 8.84375 -42.078125 2.953125 -37.421875 2.953125 -29.875 C 2.953125 -23.15625 7.484375 -19.15625 17.15625 -17.09375 C 22.984375 -15.859375 25.640625 -14.140625 25.640625 -11.25 C 25.640625 -8.484375 23.15625 -6.890625 19.265625 -6.890625 C 14.734375 -6.890625 11.78125 -9.1875 11.78125 -13.140625 L 2.59375 -13.140625 C 2.59375 -4.59375 8.953125 0.828125 19.328125 0.828125 Z M 19.328125 0.828125 "/></g></g></g><g fill="#0554bd" fill-opacity="1"><g transform="translate(76.960686, 282.107229)"><g><path d="M 4.484375 0 L 13.4375 0 L 13.4375 -11.78125 L 18.265625 -11.78125 L 25.109375 0 L 35.546875 0 L 26.640625 -14.796875 C 28.296875 -16.265625 29.59375 -18.328125 30.59375 -21.09375 L 34.1875 -30.9375 L 24.515625 -30.9375 L 22.34375 -24.21875 C 21.15625 -20.75 19.515625 -19.796875 15.734375 -19.796875 L 13.4375 -19.796875 L 13.4375 -43.609375 L 4.484375 -43.609375 Z M 4.484375 0 "/></g></g></g><g fill="#0554bd" fill-opacity="1"><g transform="translate(113.438864, 282.107229)"><g><path d="M 4.59375 11.78125 L 8.78125 11.78125 C 15.96875 11.78125 18.984375 10.015625 21.515625 3.65625 L 35.296875 -30.9375 L 25.703125 -30.9375 L 21.578125 -19.6875 L 18.734375 -11.78125 L 10.4375 -30.9375 L 0.53125 -30.9375 L 14.4375 -1 L 14.09375 0.0625 C 13.03125 3.125 11.78125 4.0625 8.140625 4.0625 L 4.59375 4.0625 Z M 4.59375 11.78125 "/></g></g></g><g fill="#0554bd" fill-opacity="1"><g transform="translate(149.224946, 282.107229)"><g><path d="M 14.5 0 L 19.328125 0 L 31.703125 -33.421875 L 38.546875 -15.03125 L 44.140625 0 L 48.984375 0 L 62.421875 -41.25 L 57 -41.25 L 46.390625 -8.25 L 34.1875 -41.25 L 29.296875 -41.25 L 17.09375 -8.3125 L 12.265625 -23.453125 L 6.546875 -41.25 L 1.125 -41.25 Z M 14.5 0 "/></g></g></g><g fill="#0554bd" fill-opacity="1"><g transform="translate(212.163183, 282.107229)"><g><path d="M 15.5 0.46875 C 20.453125 0.46875 24.34375 -1.125 27.109375 -4.25 L 27.640625 0 L 31.703125 0 L 31.703125 -19.453125 C 31.703125 -26.515625 26.34375 -31.359375 18.328125 -31.359375 C 11.671875 -31.359375 6.65625 -27.765625 5.296875 -21.859375 L 10.3125 -21.859375 C 11.3125 -24.875 14.4375 -26.75 18.390625 -26.75 C 23.578125 -26.75 26.75 -23.875 26.75 -19.09375 L 26.75 -17.96875 L 14.265625 -17.96875 C 7.890625 -17.96875 3.71875 -14.375 3.71875 -8.84375 C 3.71875 -3.0625 8.140625 0.46875 15.5 0.46875 Z M 8.65625 -8.90625 C 8.65625 -11.78125 11.015625 -13.609375 14.4375 -13.609375 L 26.8125 -13.609375 C 26.640625 -7.953125 22.046875 -3.953125 15.671875 -3.953125 C 11.375 -3.953125 8.65625 -5.890625 8.65625 -8.90625 Z M 8.65625 -8.90625 "/></g></g></g><g fill="#0554bd" fill-opacity="1"><g transform="translate(248.110977, 282.107229)"><g><path d="M 18.6875 0 L 23.28125 0 L 23.28125 -4.78125 L 18.921875 -4.78125 C 14.859375 -4.78125 12.96875 -6.84375 12.96875 -11.25 L 12.96875 -26.046875 L 22.875 -26.046875 L 22.875 -30.59375 L 12.96875 -30.59375 L 12.96875 -38.1875 L 9.140625 -38.1875 L 8.65625 -34.0625 C 8.3125 -31.296875 7.484375 -30.59375 4.65625 -30.59375 L 1.59375 -30.59375 L 1.59375 -26.046875 L 8.015625 -26.046875 L 8.015625 -11.015625 C 8.015625 -4 11.90625 0 18.6875 0 Z M 18.6875 0 "/></g></g></g><g fill="#0554bd" fill-opacity="1"><g transform="translate(273.686906, 282.107229)"><g><path d="M 18.796875 0.765625 C 26.46875 0.765625 32.421875 -3.828125 34.484375 -11.25 L 29.234375 -11.25 C 27.703125 -6.84375 23.75 -4 18.796875 -4 C 12.5 -4 8.015625 -8.65625 8.015625 -15.328125 C 8.015625 -21.921875 12.5 -26.640625 18.796875 -26.640625 C 23.453125 -26.640625 27.28125 -24.109375 29.109375 -19.859375 L 34.125 -19.859375 C 32.59375 -26.75 26.40625 -31.359375 18.796875 -31.359375 C 9.609375 -31.359375 3.0625 -24.640625 3.0625 -15.328125 C 3.0625 -5.953125 9.609375 0.765625 18.796875 0.765625 Z M 18.796875 0.765625 "/></g></g></g><g fill="#0554bd" fill-opacity="1"><g transform="translate(310.459753, 282.107229)"><g><path d="M 5.484375 0 L 10.4375 0 L 10.4375 -15.625 C 10.4375 -22.34375 14.5 -26.640625 20.28125 -26.640625 C 25.578125 -26.640625 28.875 -22.875 28.875 -16.734375 L 28.875 0 L 33.828125 0 L 33.828125 -17.203125 C 33.828125 -25.9375 29 -31.359375 20.921875 -31.359375 C 16.96875 -31.359375 13.078125 -29.875 10.4375 -26.578125 L 10.4375 -43.609375 L 5.484375 -43.609375 Z M 5.484375 0 "/></g></g></g></svg>